<?xml version="1.0" encoding="UTF-8"?>
<svg width="319px" height="232px" viewBox="0 0 319 232" version="1.1" xmlns="http://www.w3.org/2000/svg" xmlns:xlink="http://www.w3.org/1999/xlink">
    <!-- Generator: Sketch 48.2 (47327) - http://www.bohemiancoding.com/sketch -->
    <title>illustration-3</title>
    <desc>Created with Sketch.</desc>
    <defs></defs>
    <g id="Landing,-Unclicked" stroke="none" stroke-width="1" fill="none" fill-rule="evenodd" transform="translate(-96.000000, -1535.000000)">
        <g id="illustration-3" transform="translate(98.000000, 1537.000000)">
            <polygon id="Fill-55" fill="#FFFFFF" points="49.6666667 227 26.3333333 227 18 201 58 201"></polygon>
            <polygon id="Stroke-56" stroke="#085EA7" stroke-width="3" stroke-linejoin="round" points="49.6666667 227 26.3333333 227 18 201 58 201"></polygon>
            <polygon id="Fill-57" fill="#FFFFFF" points="287 228 257 228 252 188 292 188"></polygon>
            <polygon id="Stroke-58" stroke="#085EA7" stroke-width="3" stroke-linejoin="round" points="287 228 257 228 252 188 292 188"></polygon>
            <polygon id="Fill-59" fill="#FFFFFF" points="51 201 25 201 25 166.777778 38 157 51 166.777778"></polygon>
            <polygon id="Fill-60" fill="#FFFFFF" points="173 227 166.454545 209 143.545455 209 137 227"></polygon>
            <polyline id="Fill-61" fill="#FFFFFF" points="196.145833 97 234 97 234 209 76 209 76 97 117.145833 97"></polyline>
            <polygon id="Fill-62" fill="#FFFFFF" points="147.25 115 139 45.8615385 155.5 8 172 45.8615385 163.75 115"></polygon>
            <polygon id="Fill-63" fill="#CCEFFF" points="38 157 51 166.777778 51 201 38 201"></polygon>
            <polygon id="Fill-64" fill="#CCEFFF" points="169 217 166.010716 209 142.990928 209 140 217"></polygon>
            <polygon id="Fill-65" fill="#CCEFFF" points="155 8 171 45.8615385 163 115 155 115"></polygon>
            <polygon id="Fill-66" fill="#CCEFFF" points="234 97 234 188 76 188"></polygon>
            <polyline id="Stroke-67" stroke="#085EA7" stroke-width="3" stroke-linecap="round" stroke-linejoin="round" points="260.5 179 264 175.75 257 169.25 260.5 166"></polyline>
            <polyline id="Stroke-68" stroke="#085EA7" stroke-width="3" stroke-linecap="round" stroke-linejoin="round" points="272.5 179 276 175.75 269 169.25 272.5 166"></polyline>
            <polyline id="Stroke-69" stroke="#085EA7" stroke-width="3" stroke-linecap="round" stroke-linejoin="round" points="283.5 179 287 175.75 280 169.25 283.5 166"></polyline>
            <polygon id="Stroke-70" stroke="#085EA7" stroke-width="3" stroke-linejoin="round" points="160 201.571429 155 205 150 201.571429 150 196.428571 155 193 160 196.428571"></polygon>
            <polygon id="Stroke-71" stroke="#085EA7" stroke-width="3" stroke-linecap="round" stroke-linejoin="round" points="173 227 166.454545 209 143.545455 209 137 227"></polygon>
            <polygon id="Stroke-72" stroke="#085EA7" stroke-width="3" stroke-linecap="round" stroke-linejoin="round" points="51 201 25 201 25 166.777778 38 157 51 166.777778"></polygon>
            <path d="M25,175 L20,175" id="Stroke-73" stroke="#085EA7" stroke-width="3" stroke-linecap="round" stroke-linejoin="round"></path>
            <path d="M24,167 L21,165" id="Stroke-74" stroke="#085EA7" stroke-width="3" stroke-linecap="round" stroke-linejoin="round"></path>
            <path d="M25,185 L20,185" id="Stroke-75" stroke="#085EA7" stroke-width="3" stroke-linecap="round" stroke-linejoin="round"></path>
            <path d="M25,194 L20,194" id="Stroke-76" stroke="#085EA7" stroke-width="3" stroke-linecap="round" stroke-linejoin="round"></path>
            <path d="M51,175 L56,175" id="Stroke-77" stroke="#085EA7" stroke-width="3" stroke-linecap="round" stroke-linejoin="round"></path>
            <path d="M51,185 L56,185" id="Stroke-78" stroke="#085EA7" stroke-width="3" stroke-linecap="round" stroke-linejoin="round"></path>
            <path d="M51,194 L56,194" id="Stroke-79" stroke="#085EA7" stroke-width="3" stroke-linecap="round" stroke-linejoin="round"></path>
            <path d="M31,161 L28,158" id="Stroke-80" stroke="#085EA7" stroke-width="3" stroke-linecap="round" stroke-linejoin="round"></path>
            <path d="M51,167 L54,165" id="Stroke-81" stroke="#085EA7" stroke-width="3" stroke-linecap="round" stroke-linejoin="round"></path>
            <path d="M45,161 L48,158" id="Stroke-82" stroke="#085EA7" stroke-width="3" stroke-linecap="round" stroke-linejoin="round"></path>
            <path d="M20,208 L55,208" id="Stroke-83" stroke="#085EA7" stroke-width="3" stroke-linecap="round" stroke-linejoin="round"></path>
            <polyline id="Stroke-84" stroke="#085EA7" stroke-width="3" stroke-linecap="round" stroke-linejoin="round" points="31 195 34 190 31 185 34 180 31 175 34 170"></polyline>
            <polyline id="Stroke-85" stroke="#085EA7" stroke-width="3" stroke-linecap="round" stroke-linejoin="round" points="41 195 44 190 41 185 44 180 41 175 44 170"></polyline>
            <path d="M15,227 L302,227" id="Stroke-86" stroke="#085EA7" stroke-width="3" stroke-linecap="round" stroke-linejoin="round"></path>
            <path d="M310,227 L315,227" id="Stroke-87" stroke="#085EA7" stroke-width="3" stroke-linecap="round" stroke-linejoin="round"></path>
            <path d="M0,227 L5,227" id="Stroke-88" stroke="#085EA7" stroke-width="3" stroke-linecap="round" stroke-linejoin="round"></path>
            <polygon id="Fill-89" fill="#FFFFFF" points="161 55 154.5 59 148 55 148 47 154.5 43 161 47"></polygon>
            <polygon id="Stroke-90" stroke="#085EA7" stroke-width="3" stroke-linejoin="round" points="161 55 154.5 59 148 55 148 47 154.5 43 161 47"></polygon>
            <polygon id="Stroke-91" stroke="#085EA7" stroke-width="3" stroke-linecap="round" stroke-linejoin="round" points="147.25 115 139 45.8615385 155.5 8 172 45.8615385 163.75 115"></polygon>
            <polygon id="Fill-92" fill="#FFFFFF" points="136 132.142857 128 142 120 132.142857 128 96"></polygon>
            <polygon id="Stroke-93" stroke="#085EA7" stroke-width="3" stroke-linecap="round" stroke-linejoin="round" points="136 132.142857 128 142 120 132.142857 128 96"></polygon>
            <polygon id="Fill-94" fill="#FFFFFF" points="163 132.142857 155 142 147 132.142857 155 96"></polygon>
            <polygon id="Stroke-95" stroke="#085EA7" stroke-width="3" stroke-linecap="round" stroke-linejoin="round" points="163 132.142857 155 142 147 132.142857 155 96"></polygon>
            <polygon id="Fill-96" fill="#FFFFFF" points="189 132.142857 181 142 173 132.142857 181 96"></polygon>
            <polygon id="Stroke-97" stroke="#085EA7" stroke-width="3" stroke-linecap="round" stroke-linejoin="round" points="189 132.142857 181 142 173 132.142857 181 96"></polygon>
            <path d="M132,109 L144,86" id="Stroke-98" stroke="#085EA7" stroke-width="3" stroke-linecap="round" stroke-linejoin="round"></path>
            <path d="M135,125 L146,115" id="Stroke-99" stroke="#085EA7" stroke-width="3" stroke-linecap="round" stroke-linejoin="round"></path>
            <path d="M179,109 L167,86" id="Stroke-100" stroke="#085EA7" stroke-width="3" stroke-linecap="round" stroke-linejoin="round"></path>
            <path d="M174,125 L163,115" id="Stroke-101" stroke="#085EA7" stroke-width="3" stroke-linecap="round" stroke-linejoin="round"></path>
            <path d="M155,8 L155,0" id="Stroke-102" stroke="#085EA7" stroke-width="3" stroke-linecap="round" stroke-linejoin="round"></path>
            <path d="M120,132 L136,132" id="Stroke-103" stroke="#085EA7" stroke-width="3" stroke-linecap="round" stroke-linejoin="round"></path>
            <path d="M147,132 L163,132" id="Stroke-104" stroke="#085EA7" stroke-width="3" stroke-linecap="round" stroke-linejoin="round"></path>
            <path d="M173,132 L189,132" id="Stroke-105" stroke="#085EA7" stroke-width="3" stroke-linecap="round" stroke-linejoin="round"></path>
            <polygon id="Fill-106" fill="#CCEFFF" points="272 216 282 206.181818 277 198 272 202.909091 267 198 262 206.181818"></polygon>
            <polygon id="Stroke-107" stroke="#085EA7" stroke-width="3" stroke-linejoin="round" points="272 216 282 206.181818 277 198 272 202.909091 267 198 262 206.181818"></polygon>
            <polyline id="Stroke-108" stroke="#085EA7" stroke-width="3" stroke-linecap="round" stroke-linejoin="round" points="290.432695 198 303 198 294.891015 218 288 218"></polyline>
            <path d="M155,150 L155,160" id="Stroke-109" stroke="#085EA7" stroke-width="3" stroke-linecap="round" stroke-linejoin="round"></path>
            <path d="M155,166 L155,169" id="Stroke-110" stroke="#085EA7" stroke-width="3" stroke-linecap="round" stroke-linejoin="round"></path>
            <path d="M162,147 L162,157" id="Stroke-111" stroke="#085EA7" stroke-width="3" stroke-linecap="round" stroke-linejoin="round"></path>
            <path d="M162,163 L162,166" id="Stroke-112" stroke="#085EA7" stroke-width="3" stroke-linecap="round" stroke-linejoin="round"></path>
            <path d="M148,147 L148,157" id="Stroke-113" stroke="#085EA7" stroke-width="3" stroke-linecap="round" stroke-linejoin="round"></path>
            <path d="M148,163 L148,166" id="Stroke-114" stroke="#085EA7" stroke-width="3" stroke-linecap="round" stroke-linejoin="round"></path>
            <path d="M155,176 L155,178" id="Stroke-115" stroke="#085EA7" stroke-width="3" stroke-linecap="round" stroke-linejoin="round"></path>
            <path d="M162,173 L162,175" id="Stroke-116" stroke="#085EA7" stroke-width="3" stroke-linecap="round" stroke-linejoin="round"></path>
            <path d="M148,173 L148,175" id="Stroke-117" stroke="#085EA7" stroke-width="3" stroke-linecap="round" stroke-linejoin="round"></path>
            <path d="M129,150 L129,160" id="Stroke-118" stroke="#085EA7" stroke-width="3" stroke-linecap="round" stroke-linejoin="round"></path>
            <path d="M129,166 L129,169" id="Stroke-119" stroke="#085EA7" stroke-width="3" stroke-linecap="round" stroke-linejoin="round"></path>
            <path d="M135,147 L135,157" id="Stroke-120" stroke="#085EA7" stroke-width="3" stroke-linecap="round" stroke-linejoin="round"></path>
            <path d="M135,163 L135,166" id="Stroke-121" stroke="#085EA7" stroke-width="3" stroke-linecap="round" stroke-linejoin="round"></path>
            <path d="M122,147 L122,157" id="Stroke-122" stroke="#085EA7" stroke-width="3" stroke-linecap="round" stroke-linejoin="round"></path>
            <path d="M122,163 L122,166" id="Stroke-123" stroke="#085EA7" stroke-width="3" stroke-linecap="round" stroke-linejoin="round"></path>
            <path d="M129,176 L129,178" id="Stroke-124" stroke="#085EA7" stroke-width="3" stroke-linecap="round" stroke-linejoin="round"></path>
            <path d="M135,173 L135,175" id="Stroke-125" stroke="#085EA7" stroke-width="3" stroke-linecap="round" stroke-linejoin="round"></path>
            <path d="M122,173 L122,175" id="Stroke-126" stroke="#085EA7" stroke-width="3" stroke-linecap="round" stroke-linejoin="round"></path>
            <path d="M181,150 L181,160" id="Stroke-127" stroke="#085EA7" stroke-width="3" stroke-linecap="round" stroke-linejoin="round"></path>
            <path d="M181,166 L181,169" id="Stroke-128" stroke="#085EA7" stroke-width="3" stroke-linecap="round" stroke-linejoin="round"></path>
            <path d="M188,147 L188,157" id="Stroke-129" stroke="#085EA7" stroke-width="3" stroke-linecap="round" stroke-linejoin="round"></path>
            <path d="M188,163 L188,166" id="Stroke-130" stroke="#085EA7" stroke-width="3" stroke-linecap="round" stroke-linejoin="round"></path>
            <path d="M175,147 L175,157" id="Stroke-131" stroke="#085EA7" stroke-width="3" stroke-linecap="round" stroke-linejoin="round"></path>
            <path d="M175,163 L175,166" id="Stroke-132" stroke="#085EA7" stroke-width="3" stroke-linecap="round" stroke-linejoin="round"></path>
            <path d="M181,176 L181,178" id="Stroke-133" stroke="#085EA7" stroke-width="3" stroke-linecap="round" stroke-linejoin="round"></path>
            <path d="M188,173 L188,175" id="Stroke-134" stroke="#085EA7" stroke-width="3" stroke-linecap="round" stroke-linejoin="round"></path>
            <path d="M175,173 L175,175" id="Stroke-135" stroke="#085EA7" stroke-width="3" stroke-linecap="round" stroke-linejoin="round"></path>
            <polyline id="Stroke-136" stroke="#085EA7" stroke-width="3" stroke-linecap="round" stroke-linejoin="round" points="196.145833 97 234 97 234 212 76 212 76 97 117.145833 97"></polyline>
            <path d="M76,188 L234,188" id="Stroke-137" stroke="#085EA7" stroke-width="3" stroke-linecap="round" stroke-linejoin="round"></path>
        </g>
    </g>
</svg>