<?xml version="1.0" encoding="UTF-8"?>
<svg width="153px" height="56px" viewBox="0 0 153 56" version="1.1" xmlns="http://www.w3.org/2000/svg" xmlns:xlink="http://www.w3.org/1999/xlink">
    <!-- Generator: Sketch 48.2 (47327) - http://www.bohemiancoding.com/sketch -->
    <title>logo_slogan_beta</title>
    <desc>Created with Sketch.</desc>
    <defs></defs>
    <g id="Landing,-Unclicked" stroke="none" stroke-width="1" fill="none" fill-rule="evenodd" transform="translate(-630.000000, -2860.000000)">
        <g id="logo_slogan_beta" transform="translate(630.000000, 2860.000000)">
            <path d="M32.3559322,4.67625899 L23,9.35251799 L13.6440678,4.67625899 L23,0 L32.3559322,4.67625899 Z M46,38.1294964 L23,50 L0,38.1294964 L23,26.618705 L46,38.1294964 Z" id="Shape" fill="#5AB8A1" fill-rule="nonzero"></path>
            <polygon id="Shape" fill="#31A689" fill-rule="nonzero" points="32 24.2898551 23 29 23 8.71014493 32 4"></polygon>
            <polygon id="Shape" fill="#27856E" fill-rule="nonzero" points="13 24.2898551 22 29 22 8.71014493 13 4"></polygon>
            <polygon id="Shape" fill="#31A689" fill-rule="nonzero" points="46 44.1195104 23 56 23 49.8790497 46 38"></polygon>
            <path d="M0,44.11856 L22.3243243,56 L22.3243243,49.88 L0,38 L0,44.11856 Z M28,40.88 L22.3243243,43.76 L16.6486486,40.88 L22.3243243,38 L28,40.88 Z" id="Shape" fill="#27856E" fill-rule="nonzero"></path>
            <polygon id="Shape" fill="#195345" fill-rule="nonzero" points="23 37.3333333 29 40 35 37.3333333 23 32"></polygon>
            <polygon id="Shape" fill="#227460" fill-rule="nonzero" points="23 37.3333333 16.993994 40 11 37.3333333 23 32"></polygon>
            <path d="M50,29.5671653 L53.042217,29.5671653 C53.042217,30.6820057 53.7736684,31.1309894 55.0363437,31.1309894 C56.2082181,31.1309894 56.964892,30.7670539 56.964892,29.9162174 C56.964892,29.1663756 56.3580007,29.0359683 54.4465261,28.6404941 C52.29408,28.1939909 50.1913027,27.6312552 50.1913027,25.3633027 C50.1913027,23.3129319 52.028274,22 54.8539659,22 C57.7708467,22 59.6908581,23.3965626 59.6908581,25.6347483 L56.8236462,25.6347483 C56.8236462,24.7633584 56.2167549,24.1648315 54.9040228,24.1648315 C53.8644693,24.1648315 53.1252571,24.5358544 53.1252571,25.3016427 C53.1252571,26.0614068 53.8644693,26.1978384 55.7266631,26.5617739 C57.754161,26.956185 59.8899216,27.4714354 59.8899216,29.7886451 C59.8899216,31.5339054 58.552355,33.2635735 54.9703773,33.2635735 C51.4376804,33.2635735 50,31.6001721 50,29.5671653 Z M64.923549,26.883894 C63.909606,26.883894 63.2615827,27.5451439 63.2615827,28.9700559 C63.2615827,30.3981573 63.909606,31.0509024 64.923549,31.0509024 C65.937492,31.0509024 66.6025889,30.3981573 66.6025889,28.9700559 C66.6025889,27.5451439 65.937492,26.883894 64.923549,26.883894 Z M69.3863727,35.8093502 L66.6025889,35.8093502 L66.6025889,32.023287 C66.0123833,32.7352115 65.1563717,33.1002101 64.1175943,33.1002101 C61.7241766,33.1002101 60.4770229,31.2709646 60.4770229,28.9700559 C60.4770229,26.71805 61.6908054,24.8349406 64.1175943,24.8349406 C65.1563717,24.8349406 66.0123833,25.1988761 66.6025889,25.9129268 L66.6025889,25.0312603 L69.3863727,25.0312603 L69.3863727,35.8093502 Z M73.7382176,29.2000405 C73.7382176,30.3297643 74.1033612,30.7783937 74.951224,30.7783937 C75.790938,30.7783937 76.4804813,30.2999975 76.4804813,28.8201585 L76.4804813,24.8349406 L79.2650412,24.8349406 L79.2650412,32.7132407 L76.4804813,32.7132407 L76.4804813,31.544182 C76.2895667,31.9768649 75.5577272,32.9113322 73.7960352,32.9113322 C72.2089603,32.9113322 70.9540458,32.0987673 70.9540458,29.974688 L70.9540458,24.8349406 L73.7382176,24.8349406 L73.7382176,29.2000405 Z M83.1004076,30.6933455 C83.1004076,31.2181639 83.5404426,31.4531096 84.2230012,31.4531096 C85.4022484,31.4531096 85.9680076,30.7929228 85.9680076,29.7762422 L85.9680076,29.1603513 C85.5528071,29.533146 84.7379275,29.6398107 84.0728306,29.7985673 C83.4993106,29.9420862 83.1004076,30.1929785 83.1004076,30.6933455 Z M88.6190824,30.7854811 C88.6190824,32.2040145 88.9178716,32.9095603 88.9178716,32.9095603 L86.2419623,32.9095603 C86.2419623,32.9095603 86.1340878,32.613309 86.0510477,32.0750247 C85.5349573,32.6218139 84.6789457,33.1002101 83.2835615,33.1002101 C81.4299045,33.1002101 80.266955,32.2802035 80.266955,30.8003645 C80.266955,28.9934442 82.0034245,28.5299314 83.5489794,28.2949857 C84.9618254,28.0837826 85.9680076,28.1217 85.9680076,27.3165768 C85.9680076,26.9675247 85.6024759,26.5497254 84.712705,26.5497254 C83.8229342,26.5497254 83.3747504,26.9221657 83.2664878,27.4997848 L80.6402474,27.4997848 C80.70699,26.2913914 81.5214815,24.8349406 84.671185,24.8349406 C87.2970373,24.8349406 88.6190824,25.8820968 88.6190824,27.9912927 L88.6190824,30.7854811 Z M95.8439598,24.8877414 L95.8439598,27.0437138 C95.8439598,27.0437138 95.4951137,26.990913 95.1047476,26.990913 C93.5506559,26.990913 92.7520739,27.7655605 92.7520739,29.6387476 L92.7520739,32.8039588 L89.9679021,32.8039588 L89.9679021,24.9256587 L92.7520739,24.9256587 L92.7520739,26.1638191 C92.9018566,25.8381553 93.4912861,24.8349406 95.087674,24.8349406 C95.5366338,24.8349406 95.8439598,24.8877414 95.8439598,24.8877414 Z M98.918772,28.2953401 L102.259778,28.2953401 C102.085549,27.2173539 101.495344,26.7254917 100.614886,26.7254917 C99.7088171,26.7254917 99.0937771,27.2333004 98.918772,28.2953401 Z M100.639332,31.22596 C101.287743,31.22596 101.794521,30.9591212 102.060715,30.5335257 L104.786293,30.5335257 C104.237607,32.1735389 102.659069,33.1005645 100.623034,33.1005645 C97.7143024,33.1005645 96.1765083,31.4151922 96.1765083,29.0476624 C96.1765083,26.6861569 97.7143024,24.8349406 100.631183,24.8349406 C103.356761,24.8349406 105.019116,26.4427064 105.019116,29.0561673 C105.019116,29.4027388 104.994281,29.6695775 104.994281,29.6695775 L98.918772,29.6695775 C99.1100747,30.7475637 99.7580979,31.22596 100.639332,31.22596 Z M108.860691,24.4203306 L108.860691,27.1000582 L111.038747,27.1000582 C111.711993,27.1000582 112.575765,26.8874377 112.575765,25.7651555 C112.575765,24.6488977 111.711993,24.4203306 111.038747,24.4203306 L108.860691,24.4203306 Z M105.877455,22 L111.379057,22 C113.921869,22 115.560165,23.3582909 115.560165,25.67302 C115.560165,27.9799529 113.921869,29.3385982 111.379057,29.3385982 L108.860691,29.3385982 L108.860691,32.7766725 L105.877455,32.7766725 L105.877455,22 Z M118.70948,28.2953401 L122.050098,28.2953401 C121.875093,27.2173539 121.285664,26.7254917 120.404818,26.7254917 C119.498749,26.7254917 118.883709,27.2333004 118.70948,28.2953401 Z M120.429652,31.22596 C121.078063,31.22596 121.585229,30.9591212 121.851035,30.5335257 L124.576613,30.5335257 C124.027539,32.1735389 122.449001,33.1005645 120.413743,33.1005645 C117.505011,33.1005645 115.96644,31.4151922 115.96644,29.0476624 C115.96644,26.6861569 117.505011,24.8349406 120.421503,24.8349406 C123.147469,24.8349406 124.809824,26.4427064 124.809824,29.0561673 C124.809824,29.4027388 124.783825,29.6695775 124.783825,29.6695775 L118.70948,29.6695775 C118.900395,30.7475637 119.548806,31.22596 120.429652,31.22596 Z M129.701429,26.883894 C128.704172,26.883894 128.063909,27.5366391 128.063909,28.9700559 C128.063909,30.3981573 128.704172,30.9906599 129.701429,30.9906599 C130.698687,30.9906599 131.354471,30.3981573 131.354471,28.9700559 C131.354471,27.5366391 130.698687,26.883894 129.701429,26.883894 Z M131.354471,32.1820437 L131.354471,32.0371073 C130.764653,32.7043815 129.933476,33.0399676 128.919921,33.0399676 C126.525727,33.0399676 125.27935,31.2709646 125.27935,28.9700559 C125.27935,26.7091908 126.492356,24.8349406 128.919921,24.8349406 C129.933476,24.8349406 130.764653,25.1839927 131.354471,25.8661503 L131.354471,25.0312603 L134.139419,25.0312603 L134.139419,31.7408561 C134.139419,34.0566482 133.589957,36 129.758859,36 C126.949853,36 126.019338,34.9514263 125.603749,33.7001544 L128.404219,33.7001544 C128.628505,34.0492065 129.086001,34.2837978 129.801155,34.2837978 C131.031235,34.2837978 131.354471,33.6239654 131.354471,32.1820437 Z M137.869239,25.6914471 L138.756681,25.6914471 C139.0675,25.6914471 139.372109,25.6308502 139.372109,25.2864049 C139.372109,24.935581 139.060515,24.887387 138.750085,24.887387 L137.869239,24.887387 L137.869239,25.6914471 Z M137.869239,24.0230845 L138.76289,24.0230845 C139.021323,24.0230845 139.252982,23.9263422 139.252982,23.6602121 C139.252982,23.4061306 139.0675,23.303364 138.815663,23.303364 L137.869239,23.303364 L137.869239,24.0230845 Z M138.921986,22.3543676 C139.736089,22.3543676 140.57037,22.5237553 140.57037,23.4426304 C140.57037,24.0230845 140.245971,24.234642 139.682928,24.3551269 C139.835039,24.3856026 139.994522,24.421748 140.133052,24.4883691 C140.524194,24.6758296 140.682513,25.0383476 140.682513,25.425317 C140.682513,25.8969803 140.451243,26.3321437 139.947958,26.5075556 C139.656153,26.6103222 139.292562,26.6223707 138.981743,26.6223707 L136.532448,26.6223707 L136.532448,22.3543676 L138.921986,22.3543676 Z M141.188903,26.6223707 L141.188903,22.3543676 L144.822878,22.3543676 L144.822878,23.2852912 L142.512888,23.2852912 L142.512888,23.9504392 L144.564444,23.9504392 L144.564444,24.8508872 L142.512888,24.8508872 L142.512888,25.6854228 L144.862458,25.6854228 L144.862458,26.6223707 L141.188903,26.6223707 Z M146.340106,26.6223707 L146.340106,23.2973397 L145.069282,23.2973397 L145.069282,22.3543676 L148.975271,22.3543676 L148.975271,23.2973397 L147.671076,23.2973397 L147.671076,26.6223707 L146.340106,26.6223707 Z M150.583688,23.4305819 L150.100193,24.9118384 L151.059811,24.9118384 L150.583688,23.4305819 Z M151.615869,26.6223707 L151.357436,25.8243349 L149.809164,25.8243349 L149.557328,26.6223707 L148.173585,26.6223707 L149.855341,22.3543676 L151.337646,22.3543676 L153,26.6223707 L151.615869,26.6223707 Z" id="Shape" fill="#32A88B" fill-rule="nonzero"></path>
            <path d="M67,41 L134,41" id="Shape" stroke="#31A689"></path>
            <path d="M68.841479,48.0227396 L68,48.0227396 L68,44.1082837 L68.841479,44.1082837 L68.841479,48.0227396 Z M70.3997733,45.5863563 C70.464053,45.5305225 70.5322284,45.4784109 70.6039099,45.4306984 C70.7472609,45.3348139 70.9124632,45.2665264 71.0885395,45.2303736 C71.1800892,45.2114239 71.2794305,45.2019491 71.387732,45.2019491 C71.5622609,45.2019491 71.7169217,45.2276665 71.8521037,45.2791012 C71.9872857,45.330536 72.0998725,45.4026123 72.1902536,45.4956687 C72.2806347,45.588725 72.3491996,45.6997158 72.3959484,45.828641 C72.4426973,45.9575663 72.4660717,46.0996887 72.4660717,46.2550081 L72.4660717,48.0227396 L71.6962743,48.0227396 L71.6962743,46.2550081 C71.6962743,46.0854764 71.6514733,45.9538441 71.5622609,45.8611262 C71.472659,45.7680698 71.3366978,45.7217109 71.1539878,45.7217109 C71.0211432,45.7217109 70.8964797,45.7477666 70.7799972,45.8002166 C70.6578447,45.8562857 70.5464085,45.9284248 70.4496388,46.0140769 L70.4496388,48.0227396 L69.6798413,48.0227396 L69.6798413,45.2452626 L70.1504462,45.2452626 C70.2501771,45.2452626 70.3156254,45.285869 70.3467913,45.3670818 L70.3997733,45.5863563 Z M74.2175946,48.0660531 C73.9390494,48.0660531 73.7255631,47.9980374 73.5771356,47.8616676 C73.428708,47.7252978 73.3542995,47.5371548 73.3542995,47.2972388 L73.3542995,45.7460747 L73.0270577,45.7460747 C72.9877941,45.7468468 72.9497482,45.7342113 72.9210936,45.7108825 C72.8918756,45.6871955 72.8774614,45.6523416 72.8774614,45.6053059 L72.8774614,45.3400108 L73.3916985,45.2669193 L73.5537612,44.5089334 C73.5619468,44.4759279 73.5828323,44.446329 73.6129763,44.4250135 C73.6453573,44.4042396 73.6849552,44.39373 73.7251735,44.3952355 L74.1240969,44.3952355 L74.1240969,45.2696264 L74.9780422,45.2696264 L74.9780422,45.7460747 L74.1240969,45.7460747 L74.1240969,47.2512182 C74.1240969,47.3378452 74.14864,47.4055225 74.1973367,47.4542501 C74.2481627,47.5037746 74.3220704,47.5306477 74.3983567,47.5273416 C74.4390317,47.5282663 74.4795954,47.5232329 74.5183454,47.5124526 C74.5704005,47.4969576 74.6201073,47.4760514 74.6663833,47.4501895 C74.6831152,47.4407734 74.7025486,47.4356156 74.7224819,47.4353005 C74.7454668,47.4353005 74.7641663,47.4403763 74.7785805,47.4501895 C74.7929948,47.4603411 74.8085777,47.4748917 74.8253294,47.4948565 L75.0559569,47.8197076 C74.9417449,47.9018028 74.8105941,47.9642742 74.6694999,48.0037899 C74.524189,48.0454115 74.373424,48.0660531 74.2175946,48.0660531 Z M77.5055957,46.3145642 C77.5061998,46.2315042 77.4920073,46.148863 77.4635217,46.0695723 C77.4372788,45.9957344 77.3943705,45.9271751 77.3372999,45.8678939 C77.2790752,45.8087758 77.2060498,45.7620132 77.1238136,45.7311857 C77.028746,45.6962707 76.9262558,45.679204 76.8230628,45.6811045 C76.6010058,45.6811045 76.4256977,45.7362615 76.2979176,45.8462371 C76.1701374,45.9562128 76.0887165,46.1125474 76.0532653,46.3145642 L77.5055957,46.3145642 Z M76.0376824,46.717921 C76.0501487,46.8603817 76.0793668,46.9835544 76.1249469,47.0874391 C76.170527,47.1913238 76.2309109,47.2769356 76.305709,47.3446129 C76.3805072,47.4122902 76.4693299,47.4630482 76.5721774,47.4962101 C76.6750248,47.5297103 76.7887803,47.5462913 76.9134438,47.5462913 C77.0381074,47.5462913 77.1456297,47.533771 77.2360108,47.508392 C77.3175588,47.4862978 77.3967976,47.4582235 77.4728715,47.4244721 C77.5402677,47.3940173 77.5994829,47.3659312 77.6505171,47.3405522 C77.6951758,47.3168475 77.7462339,47.3037761 77.798555,47.302653 C77.8628347,47.302653 77.9107522,47.3232945 77.9419181,47.3649161 L78.1631959,47.6085544 C78.0778793,47.6951814 77.9824338,47.7675961 77.8764698,47.8264754 C77.7724225,47.8843157 77.6610492,47.9315501 77.5445531,47.9672442 C77.4303168,48.0022081 77.3123366,48.0271476 77.1923785,48.0416892 C77.0772586,48.0558581 76.9611484,48.0630943 76.8448789,48.063346 C76.6228219,48.063346 76.4159584,48.0311992 76.2246777,47.9672442 C76.0368631,47.9047425 75.8667778,47.8077898 75.7260235,47.6829995 C75.5789314,47.5495341 75.4653727,47.3909759 75.3925485,47.2173795 C75.3115172,47.0322821 75.2710016,46.8180834 75.2710016,46.574445 C75.2710016,46.3849486 75.3060632,46.2066188 75.3769656,46.0397943 C75.4437707,45.8783622 75.5470879,45.7301727 75.680833,45.6039524 C75.8166262,45.4779687 75.9811446,45.3779374 76.1639042,45.3102328 C76.3540161,45.2381565 76.5686712,45.2019491 76.8074798,45.2019491 C77.0088894,45.2019491 77.1951055,45.2300352 77.3653492,45.285869 C77.5305326,45.338916 77.6804718,45.4225087 77.8047882,45.5308609 C77.9275039,45.6381294 78.023339,45.7701002 78.0930727,45.9260964 C78.1628063,46.0820926 78.1974784,46.2604223 78.1974784,46.4607472 C78.1974784,46.5619247 78.185012,46.6299404 78.1600793,46.6651326 C78.1351466,46.7003249 78.0872291,46.717921 78.0167162,46.717921 L76.0376824,46.717921 Z M79.5531945,44 L79.5531945,48.0227396 L78.7833971,48.0227396 L78.7833971,44 L79.5531945,44 Z M81.1021391,44 L81.1021391,48.0227396 L80.3323417,48.0227396 L80.3323417,44 L81.1021391,44 Z M82.6697833,45.2452626 L82.6697833,48.0227396 L81.8968692,48.0227396 L81.8968692,45.2452626 L82.6697833,45.2452626 Z M82.7757473,44.4358419 C82.7757473,44.4933676 82.7621122,44.5475095 82.7352316,44.5982675 C82.6817968,44.6986272 82.5874058,44.7782045 82.4703216,44.8216026 C82.3484593,44.8671365 82.2104017,44.8671365 82.0885395,44.8216026 C81.9729835,44.7781449 81.8805914,44.6983759 81.8298626,44.5982675 C81.7778866,44.4928076 81.7778866,44.373462 81.8298626,44.2680022 C81.8795456,44.1666407 81.9721457,44.0857229 82.0885395,44.0419599 C82.2104017,43.996426 82.3484593,43.996426 82.4703216,44.0419599 C82.588611,44.0851664 82.6833914,44.1660406 82.7352316,44.2680022 C82.7625018,44.3204521 82.7757473,44.3762859 82.7757473,44.4358419 Z M84.6238844,46.5663238 C84.7193299,46.5663238 84.8026987,46.555157 84.8732115,46.5324851 C84.9437243,46.5098132 85.0025499,46.4786816 85.0492988,46.4390904 C85.0960476,46.3994992 85.1311092,46.3514483 85.1552628,46.2956145 C85.1797061,46.2365907 85.1918428,46.1742553 85.1911036,46.1115322 C85.1911036,45.9744857 85.1439652,45.8655252 85.0492988,45.7853276 C84.9546324,45.7051299 84.8128276,45.6648619 84.6238844,45.6648619 C84.4349412,45.6648619 84.2927468,45.7051299 84.19847,45.7853276 C84.1038037,45.8655252 84.0566653,45.9744857 84.0566653,46.1115322 C84.0566653,46.1765024 84.0683525,46.2367352 84.092506,46.2929074 C84.11627,46.3487412 84.1517212,46.3971305 84.19847,46.4377369 C84.2452189,46.4783433 84.3044341,46.5098132 84.3761156,46.5324851 C84.4477971,46.555157 84.5303867,46.5663238 84.6238844,46.5663238 Z M85.4934127,48.1472658 C85.4934127,48.093124 85.4747131,48.0491337 85.4373141,48.0146183 C85.3946998,47.9775454 85.3422618,47.9501236 85.2846012,47.9347591 C85.2111325,47.9141016 85.1354191,47.9000415 85.0586485,47.8927991 C84.967511,47.8834098 84.8760411,47.8766384 84.7843887,47.8724959 C84.6846901,47.8678585 84.5849571,47.8637978 84.4851962,47.860314 C84.384633,47.8568695 84.2842887,47.8496439 84.1844454,47.8386573 C84.1054827,47.8757483 84.0351926,47.9253264 83.9771922,47.9848403 C83.9247487,48.0394794 83.8965569,48.1086209 83.8977192,48.1797509 C83.8977192,48.2284786 83.9117439,48.2741608 83.9397932,48.3164591 C83.9724386,48.3627106 84.018701,48.4005582 84.0738065,48.4260964 C84.1349695,48.4565512 84.2144426,48.4805766 84.3122255,48.4978343 C84.4096189,48.5147537 84.529218,48.5235517 84.6706332,48.5235517 C84.8139963,48.5235517 84.9374911,48.5140769 85.0415073,48.4951272 C85.1313367,48.4805516 85.2180545,48.4540742 85.2986259,48.4166215 C85.3591807,48.3889265 85.4102468,48.3478386 85.4466638,48.2975095 C85.4776612,48.2520435 85.4938222,48.2001048 85.4934127,48.1472658 Z M86.2600935,45.3400108 L86.2600935,45.5890633 C86.2600935,45.6685842 86.2051636,45.7173119 86.0949143,45.7352463 L85.8081881,45.7812669 C85.8518204,45.8770303 85.8736365,45.9815918 85.8736365,46.0952897 C85.8736365,46.2323362 85.842081,46.3565241 85.7785805,46.4675149 C85.7160367,46.5776098 85.6260801,46.6742408 85.5152288,46.7504061 C85.4030316,46.828235 85.2705766,46.8881294 85.1178637,46.9304277 C84.9580036,46.9737758 84.7913476,46.9952385 84.6238844,46.9940444 C84.5635068,46.9941363 84.5031667,46.9914253 84.4431223,46.9859231 C84.3856882,46.9806027 84.328509,46.9733785 84.2717099,46.9642664 C84.171979,47.0167163 84.1221136,47.0752572 84.1221136,47.1402274 C84.1221136,47.1960612 84.1517212,47.2373443 84.2109364,47.2634001 C84.2701516,47.2894559 84.3484559,47.3080671 84.4462388,47.3188955 C84.5436322,47.3297239 84.6550503,47.3364916 84.7797138,47.3391987 C84.9043774,47.3419058 85.0321575,47.3476584 85.1630543,47.3567948 C85.293951,47.3659312 85.4217311,47.381497 85.5463947,47.4041689 C85.6710582,47.4268408 85.7820867,47.4623714 85.8798697,47.5110991 C85.9772631,47.5598267 86.0559569,47.6261505 86.1151721,47.7100704 C86.1743873,47.7939903 86.2039949,47.9019356 86.2039949,48.0335679 C86.2039949,48.1564023 86.1689333,48.2755143 86.0995892,48.3909042 C86.0252459,48.511285 85.9221807,48.6164978 85.7972801,48.6995127 C85.6510812,48.7962148 85.4865405,48.8699659 85.3110922,48.9174337 C85.1190324,48.9725907 84.9000921,49 84.6550503,49 C84.4139042,49 84.2043136,48.9796968 84.0254994,48.9390904 C83.8466851,48.898484 83.6982575,48.8443422 83.5798272,48.7766649 C83.4714147,48.7179407 83.3806177,48.637682 83.3149171,48.5425014 C83.2582141,48.4587882 83.2281012,48.3635045 83.2276526,48.2663779 C83.2276526,48.1364375 83.2728432,48.0278154 83.3632243,47.9401733 C83.4536053,47.8525311 83.5774897,47.7828235 83.7356566,47.7303736 C83.6544909,47.6954913 83.5848031,47.6433412 83.5330783,47.5787764 C83.4832129,47.5154981 83.4582802,47.4325934 83.4582802,47.3297239 C83.4582802,47.2881023 83.4672404,47.2451272 83.4847712,47.201137 C83.502302,47.1571467 83.5284035,47.1131565 83.5626859,47.069843 C83.5994962,47.0241076 83.6429706,46.9827057 83.6920244,46.9466703 C83.7438377,46.9077558 83.8050007,46.8732404 83.8759031,46.8424472 C83.7204716,46.7719172 83.5888863,46.6674181 83.494121,46.5392528 C83.401792,46.4130347 83.3554328,46.2651597 83.3554328,46.0952897 C83.3554328,45.9582431 83.3869882,45.8340552 83.4504887,45.7230644 C83.5139892,45.6120736 83.6024224,45.5173254 83.7153988,45.4388197 C83.8283751,45.360314 83.962778,45.3000812 84.1174387,45.2587981 C84.2720994,45.2171765 84.4407848,45.1965349 84.6238844,45.1965349 C84.7610143,45.1965349 84.8899632,45.2087168 85.0103414,45.2330807 C85.1311092,45.2574445 85.240969,45.2929751 85.3406998,45.3400108 L86.2600935,45.3400108 Z M88.7502479,46.3145642 C88.750852,46.2315042 88.7366595,46.148863 88.708174,46.0695723 C88.6819311,45.9957344 88.6390227,45.9271751 88.5819521,45.8678939 C88.5237275,45.8087758 88.450702,45.7620132 88.3684658,45.7311857 C88.2733983,45.6962707 88.170908,45.679204 88.067715,45.6811045 C87.845658,45.6811045 87.6703499,45.7362615 87.5425698,45.8462371 C87.4147896,45.9562128 87.3333687,46.1125474 87.2979176,46.3145642 L88.7502479,46.3145642 Z M87.2823346,46.717921 C87.294801,46.8603817 87.324019,46.9835544 87.3695991,47.0874391 C87.4151792,47.1913238 87.4755631,47.2769356 87.5503612,47.3446129 C87.6251594,47.4122902 87.7139822,47.4630482 87.8168296,47.4962101 C87.919677,47.5297103 88.0334325,47.5462913 88.158096,47.5462913 C88.2827596,47.5462913 88.3902819,47.533771 88.480663,47.508392 C88.5622111,47.4862978 88.6414498,47.4582235 88.7175237,47.4244721 C88.78492,47.3940173 88.8441351,47.3659312 88.8951693,47.3405522 C88.939828,47.3168475 88.9908861,47.3037761 89.0432073,47.302653 C89.1074869,47.302653 89.1554044,47.3232945 89.1865703,47.3649161 L89.4078481,47.6085544 C89.3225315,47.6951814 89.227086,47.7675961 89.121122,47.8264754 C89.0170747,47.8843157 88.9057014,47.9315501 88.7892053,47.9672442 C88.674969,48.0022081 88.5569889,48.0271476 88.4370307,48.0416892 C88.3219108,48.0558581 88.2058006,48.0630943 88.0895311,48.063346 C87.8674741,48.063346 87.6606106,48.0311992 87.4693299,47.9672442 C87.2815153,47.9047425 87.11143,47.8077898 86.9706757,47.6829995 C86.8235837,47.5495341 86.710025,47.3909759 86.6372007,47.2173795 C86.5561694,47.0322821 86.5156538,46.8180834 86.5156538,46.574445 C86.5156538,46.3849486 86.5507154,46.2066188 86.6216178,46.0397943 C86.6884229,45.8783622 86.7917401,45.7301727 86.9254852,45.6039524 C87.0612784,45.4779687 87.2257968,45.3779374 87.4085565,45.3102328 C87.5986684,45.2381565 87.8133234,45.2019491 88.052132,45.2019491 C88.2535416,45.2019491 88.4397578,45.2300352 88.6100014,45.285869 C88.7751848,45.338916 88.925124,45.4225087 89.0494404,45.5308609 C89.1721561,45.6381294 89.2679912,45.7701002 89.3377249,45.9260964 C89.4074586,46.0820926 89.4421306,46.2604223 89.4421306,46.4607472 C89.4421306,46.5619247 89.4296643,46.6299404 89.4047315,46.6651326 C89.3797988,46.7003249 89.3318813,46.717921 89.2613685,46.717921 L87.2823346,46.717921 Z M90.7386315,45.5863563 C90.8029112,45.5305225 90.8710866,45.4784109 90.9427681,45.4306984 C91.0861191,45.3348139 91.2513214,45.2665264 91.4273976,45.2303736 C91.5189474,45.2114239 91.6182887,45.2019491 91.7265902,45.2019491 C91.9011191,45.2019491 92.0557799,45.2276665 92.1909619,45.2791012 C92.3261439,45.330536 92.4387307,45.4026123 92.5291118,45.4956687 C92.6194928,45.588725 92.6880578,45.6997158 92.7348066,45.828641 C92.7815555,45.9575663 92.8049299,46.0996887 92.8049299,46.2550081 L92.8049299,48.0227396 L92.0351325,48.0227396 L92.0351325,46.2550081 C92.0351325,46.0854764 91.9903315,45.9538441 91.9011191,45.8611262 C91.8115172,45.7680698 91.675556,45.7217109 91.492846,45.7217109 C91.3600014,45.7217109 91.2353379,45.7477666 91.1188554,45.8002166 C90.9967029,45.8562857 90.8852667,45.9284248 90.788497,46.0140769 L90.788497,48.0227396 L90.0186995,48.0227396 L90.0186995,45.2452626 L90.4893044,45.2452626 C90.5890353,45.2452626 90.6544836,45.285869 90.6856495,45.3670818 L90.7386315,45.5863563 Z M94.5564528,48.0660531 C94.2779076,48.0660531 94.0644213,47.9980374 93.9159938,47.8616676 C93.7675662,47.7252978 93.6931577,47.5371548 93.6931577,47.2972388 L93.6931577,45.7460747 L93.3659159,45.7460747 C93.3266523,45.7468468 93.2886064,45.7342113 93.2599518,45.7108825 C93.2307338,45.6871955 93.2163196,45.6523416 93.2163196,45.6053059 L93.2163196,45.3400108 L93.7305567,45.2669193 L93.8926194,44.5089334 C93.900805,44.4759279 93.9216905,44.446329 93.9518345,44.4250135 C93.9842155,44.4042396 94.0238134,44.39373 94.0640317,44.3952355 L94.4629551,44.3952355 L94.4629551,45.2696264 L95.3169004,45.2696264 L95.3169004,45.7460747 L94.4629551,45.7460747 L94.4629551,47.2512182 C94.4629551,47.3378452 94.4874982,47.4055225 94.5361949,47.4542501 C94.5870209,47.5037746 94.6609286,47.5306477 94.7372149,47.5273416 C94.7778899,47.5282663 94.8184536,47.5232329 94.8572036,47.5124526 C94.9092587,47.4969576 94.9589655,47.4760514 95.0052415,47.4501895 C95.0219734,47.4407734 95.0414068,47.4356156 95.0613401,47.4353005 C95.084325,47.4353005 95.1030245,47.4403763 95.1174387,47.4501895 C95.131853,47.4603411 95.1474359,47.4748917 95.1641876,47.4948565 L95.3948151,47.8197076 C95.2806031,47.9018028 95.1494523,47.9642742 95.0083581,48.0037899 C94.8630472,48.0454115 94.7122822,48.0660531 94.5564528,48.0660531 Z M98.9851254,46.631294 C98.9851254,46.8512453 98.9539595,47.0498782 98.8916277,47.2268544 C98.8292959,47.4038305 98.7361878,47.5544126 98.612693,47.6789388 C98.4891982,47.8034651 98.334927,47.8988901 98.1498796,47.9658906 C97.9648321,48.0325528 97.7497875,48.0660531 97.5047457,48.0660531 C97.2787227,48.0665085 97.0535541,48.0419469 96.8346791,47.9929616 C96.8409123,47.9208852 96.8483142,47.8484705 96.8564953,47.7763942 C96.8646763,47.7043178 96.8720782,47.6319031 96.8783114,47.5598267 C96.882793,47.5231877 96.9021241,47.4891258 96.9328517,47.463725 C96.9628488,47.4393611 97.0060915,47.4271792 97.0621901,47.4271792 C97.0972517,47.4271792 97.1440006,47.4336086 97.2008783,47.4461289 C97.2581456,47.4586492 97.3302167,47.4650785 97.4174812,47.4650785 C97.5359116,47.4650785 97.6407069,47.4501895 97.7322567,47.4204115 C97.8218798,47.3916972 97.900988,47.3426157 97.961326,47.2782891 C98.022489,47.2133189 98.0688483,47.1290606 98.1000142,47.025176 C98.1311801,46.9212913 98.146763,46.7954115 98.146763,46.6475365 L98.146763,44.1082837 L98.9851254,44.1082837 L98.9851254,46.631294 Z M101.135572,45.2019491 C101.372432,45.2019491 101.587867,45.2354494 101.782264,45.3021115 C101.976661,45.3687737 102.142619,45.4635219 102.280918,45.5863563 C102.419217,45.7091906 102.52557,45.8587574 102.600368,46.0357336 C102.675166,46.2127098 102.712566,46.4103276 102.712566,46.6285869 C102.715891,46.8313006 102.677907,47.0329271 102.600368,47.2241473 C102.531528,47.3926192 102.422692,47.5466431 102.280918,47.6762317 C102.142619,47.800758 101.976661,47.896183 101.782264,47.9631835 C101.575954,48.0318643 101.356495,48.0658551 101.135572,48.063346 C100.913122,48.0659187 100.692118,48.0319343 100.484205,47.9631835 C100.295475,47.9001858 100.124789,47.8022699 99.9839921,47.6762317 C99.8420871,47.5464813 99.7327732,47.3925318 99.6629834,47.2241473 C99.5870166,47.0471711 99.5492279,46.8485382 99.5492279,46.6285869 C99.5492279,46.4103276 99.5870166,46.2123714 99.6629834,46.0357336 C99.7389503,45.8587574 99.846083,45.7091906 99.9839921,45.5863563 C100.125508,45.4617318 100.296055,45.3648189 100.484205,45.3021115 C100.692118,45.2333608 100.913122,45.1993764 101.135572,45.2019491 Z M101.135572,47.5489984 C101.40165,47.5489984 101.598385,47.4711695 101.726165,47.3161884 C101.853945,47.160869 101.917835,46.9338116 101.917835,46.6340011 C101.917835,46.334529 101.853945,46.106118 101.726165,45.9491067 C101.598385,45.7920953 101.40165,45.7135896 101.135572,45.7135896 C100.865597,45.7135896 100.665356,45.7924337 100.535628,45.9504602 C100.4059,46.1084867 100.340841,46.3362209 100.340841,46.6340011 C100.340841,46.9317813 100.4059,47.1585003 100.535628,47.3148349 C100.665356,47.4708311 100.865597,47.5489984 101.135572,47.5489984 Z M104.071398,47.302653 C104.158663,47.3946941 104.253719,47.4596643 104.356566,47.4975636 C104.459414,47.5354629 104.568105,47.5544126 104.68225,47.5544126 C104.80068,47.5544126 104.907034,47.5358013 105.0017,47.4989172 C105.096366,47.4616946 105.177008,47.4041689 105.243236,47.3256632 C105.309463,47.2471576 105.360497,47.1469951 105.395948,47.025176 C105.43101,46.9033568 105.44893,46.7578506 105.44893,46.5879805 C105.44893,46.2830942 105.390494,46.0624662 105.274401,45.9260964 C105.157919,45.7897266 104.990792,45.7217109 104.772631,45.7217109 C104.624982,45.7217109 104.496033,45.7511505 104.386174,45.8096914 C104.265916,45.8762466 104.15949,45.9599948 104.071398,46.0573904 L104.071398,47.302653 Z M104.071398,45.5863563 C104.199958,45.4689361 104.342931,45.3755414 104.499929,45.3061722 C104.666988,45.2346591 104.851329,45.1989222 105.037541,45.2019491 C105.222588,45.2019491 105.389326,45.2334191 105.537753,45.2966973 C105.686181,45.3599756 105.813182,45.4506632 105.917977,45.5687602 C106.023162,45.6871955 106.103414,45.8299946 106.159513,45.9978343 C106.215611,46.1656741 106.243661,46.3541554 106.243661,46.5636167 C106.246511,46.7714705 106.213954,46.9785476 106.147046,47.1781267 C106.090233,47.3492912 105.996648,47.5095728 105.871228,47.6505143 C105.75539,47.7788027 105.607883,47.8828758 105.439581,47.9550623 C105.271285,48.0271386 105.08429,48.063346 104.878595,48.063346 C104.778864,48.063346 104.688483,48.0548863 104.607451,48.0376286 C104.52642,48.0207093 104.451622,47.9966838 104.383057,47.9658906 C104.314995,47.9355113 104.251639,47.8977625 104.194503,47.8535463 C104.135835,47.8079521 104.081145,47.7586378 104.030883,47.7060097 L103.9966,47.8927991 C103.989416,47.9316407 103.966814,47.9670752 103.93271,47.9929616 C103.896557,48.0143689 103.853292,48.0248344 103.809605,48.0227396 L103.301601,48.0227396 L103.301601,44 L104.071398,44 L104.071398,45.5863563 Z M113.361949,44.1082837 L113.361949,48.0227396 L112.623318,48.0227396 L112.623318,45.4943151 C112.623318,45.3931375 112.629551,45.284177 112.642017,45.1667569 L111.280068,47.3892799 C111.215788,47.4958717 111.116837,47.5489984 110.983992,47.5489984 L110.865562,47.5489984 C110.732717,47.5489984 110.633765,47.4958717 110.569486,47.3892799 L109.191954,45.1586356 C109.198187,45.2181917 109.203641,45.2770709 109.207536,45.3345966 C109.211432,45.3921224 109.21377,45.4455874 109.21377,45.4943151 L109.21377,48.0227396 L108.475138,48.0227396 L108.475138,44.1082837 L109.107806,44.1082837 C109.145205,44.1082837 109.177539,44.1092989 109.20442,44.1109908 C109.229455,44.1124217 109.254122,44.1169804 109.27766,44.1245263 C109.300228,44.1321834 109.320483,44.1442208 109.336875,44.1597185 C109.354406,44.175961 109.371937,44.1976178 109.388299,44.2246887 L110.737782,46.398484 C110.772843,46.4560097 110.805957,46.5159042 110.835954,46.5771521 C110.865951,46.6384001 110.895559,46.7016784 110.924777,46.7666486 C110.953995,46.6999865 110.983992,46.6353546 111.015158,46.5730915 C111.045687,46.5119778 111.078956,46.4519247 111.114889,46.3930698 L112.445672,44.2246887 C112.459589,44.2009025 112.477439,44.1790137 112.498654,44.1597185 C112.515805,44.144372 112.536522,44.132375 112.559428,44.1245263 C112.582965,44.1169804 112.607632,44.1124217 112.632668,44.1109908 C112.659938,44.1092989 112.691883,44.1082837 112.729282,44.1082837 L113.361949,44.1082837 Z M115.852104,46.837033 C115.630047,46.8461695 115.443051,46.8627504 115.291118,46.8871142 C115.139184,46.9114781 115.018027,46.9426096 114.926477,46.9805089 C114.834927,47.0184082 114.769479,47.0627369 114.730132,47.1131565 C114.691379,47.1616299 114.670708,47.2192749 114.670917,47.2782891 C114.670917,47.3957093 114.711043,47.4796291 114.790905,47.5300487 C114.870768,47.5808067 114.975174,47.6058473 115.104122,47.6058473 C115.2619,47.6058473 115.39864,47.5811451 115.513954,47.5314023 C115.629268,47.4816594 115.741854,47.4061992 115.852104,47.30536 L115.852104,46.837033 Z M114.088114,45.6323768 C114.455872,45.3400108 114.898428,45.1938278 115.415781,45.1938278 C115.602777,45.1938278 115.770293,45.2205604 115.917552,45.2736871 C116.0652,45.3268138 116.189864,45.4009204 116.291543,45.4956687 C116.393221,45.5904169 116.470747,45.7037764 116.523729,45.8354088 C116.576711,45.9673795 116.603202,46.1115322 116.603202,46.2685436 L116.603202,48.0227396 L116.254144,48.0227396 C116.181293,48.0227396 116.125584,48.0132648 116.085848,47.9943151 C116.046501,47.9753655 116.015335,47.9367894 115.99235,47.8792637 L115.923785,47.6789388 C115.842754,47.7422171 115.76406,47.7973741 115.686924,47.845425 C115.611736,47.892402 115.531346,47.9327564 115.446947,47.9658906 C115.361497,47.9990307 115.272148,48.0239928 115.180479,48.0403357 C115.077363,48.0582042 114.972406,48.0668219 114.867262,48.0660531 C114.73208,48.0660531 114.607416,48.0501489 114.493271,48.0186789 C114.384302,47.9896471 114.283476,47.9412483 114.197195,47.8765566 C114.112886,47.8119285 114.046779,47.7313542 114.003967,47.6410395 C113.956044,47.5369546 113.932726,47.4255572 113.935402,47.3134813 C113.934458,47.1635702 113.995883,47.0184074 114.108372,46.9047103 C114.177594,46.8355522 114.257886,46.7753826 114.346791,46.7260422 C114.444185,46.6702084 114.564563,46.6211424 114.706757,46.5798592 C114.848952,46.5382377 115.01452,46.504399 115.203853,46.4783433 C115.418519,46.4503126 115.635063,46.4344876 115.852104,46.4309691 L115.852104,46.2685436 C115.852104,46.082431 115.806524,45.945046 115.714974,45.855712 C115.623424,45.7663779 115.491748,45.7217109 115.319167,45.7217109 C115.194503,45.7217109 115.091266,45.7342312 115.009066,45.7596102 C114.927256,45.7849892 114.854795,45.8134136 114.792464,45.8448836 L114.622609,45.930157 C114.570848,45.9556198 114.512236,45.9686978 114.452755,45.9680563 C114.40365,45.9693865 114.355422,45.9565337 114.315625,45.9315106 C114.279504,45.9083613 114.248824,45.879415 114.225244,45.8462371 L114.088114,45.6323768 Z M118.348491,48.0660531 C118.069946,48.0660531 117.85646,47.9980374 117.708032,47.8616676 C117.559605,47.7252978 117.485196,47.5371548 117.485196,47.2972388 L117.485196,45.7460747 L117.157954,45.7460747 C117.118691,45.7468468 117.080645,45.7342113 117.05199,45.7108825 C117.022772,45.6871955 117.008358,45.6523416 117.008358,45.6053059 L117.008358,45.3400108 L117.522595,45.2669193 L117.684658,44.5089334 C117.692844,44.4759279 117.713729,44.446329 117.743873,44.4250135 C117.776254,44.4042396 117.815852,44.39373 117.85607,44.3952355 L118.254994,44.3952355 L118.254994,45.2696264 L119.108939,45.2696264 L119.108939,45.7460747 L118.254994,45.7460747 L118.254994,47.2512182 C118.254994,47.3378452 118.279537,47.4055225 118.328233,47.4542501 C118.379059,47.5037746 118.452967,47.5306477 118.529253,47.5273416 C118.569928,47.5282663 118.610492,47.5232329 118.649242,47.5124526 C118.701297,47.4969576 118.751004,47.4760514 118.79728,47.4501895 C118.814012,47.4407734 118.833445,47.4356156 118.853379,47.4353005 C118.876364,47.4353005 118.895063,47.4403763 118.909477,47.4501895 C118.923891,47.4603411 118.939474,47.4748917 118.956226,47.4948565 L119.186854,47.8197076 C119.072642,47.9018028 118.941491,47.9642742 118.800397,48.0037899 C118.655086,48.0454115 118.504321,48.0660531 118.348491,48.0660531 Z M121.86712,45.8327017 C121.847738,45.8549087 121.825227,45.8749168 121.800113,45.8922577 C121.771981,45.908261 121.738611,45.9158638 121.705057,45.9139145 C121.66571,45.9139145 121.627143,45.9037629 121.589744,45.8827829 C121.545648,45.8585049 121.500967,45.8350382 121.45573,45.8123985 C121.396811,45.7835613 121.334682,45.7599796 121.270293,45.7420141 C121.183927,45.719452 121.093985,45.708944 121.003825,45.7108825 C120.868643,45.7108825 120.750602,45.7322009 120.648534,45.7744992 C120.547742,45.8161849 120.460458,45.8789766 120.394532,45.9572279 C120.323135,46.0439241 120.2718,46.1418382 120.243377,46.2455333 C120.210263,46.358216 120.193512,46.4857878 120.193512,46.6285869 C120.193512,46.7764618 120.211822,46.9084326 120.248052,47.0238224 C120.284282,47.1392122 120.336875,47.2363292 120.40544,47.3148349 C120.474005,47.3933406 120.557374,47.4528966 120.654767,47.493503 C120.75216,47.5341094 120.86241,47.5544126 120.985125,47.5544126 C121.107841,47.5544126 121.207182,47.5412155 121.28276,47.5151597 C121.350275,47.4927872 121.414591,47.4637191 121.47443,47.4285328 C121.526243,47.3970628 121.571823,47.3679616 121.610001,47.3419058 C121.646637,47.3162949 121.692314,47.3024325 121.73934,47.302653 C121.795612,47.2998484 121.849242,47.3236576 121.879586,47.3649161 L122.100864,47.6085544 C122.015548,47.6951814 121.923219,47.7675961 121.823488,47.8264754 C121.726799,47.8837489 121.622724,47.9309934 121.513387,47.9672442 C121.406693,48.002367 121.295925,48.0273282 121.183029,48.0416892 C121.071069,48.0560448 120.958052,48.063283 120.844879,48.063346 C120.653359,48.064364 120.463586,48.0316727 120.287009,47.9672442 C120.112936,47.9034612 119.95669,47.807906 119.828871,47.6870601 C119.692245,47.5560819 119.586849,47.4028888 119.51877,47.2363292 C119.442804,47.0586762 119.405015,46.8559827 119.405015,46.6285869 C119.405015,46.4245398 119.438908,46.2357201 119.506304,46.061451 C119.5737,45.8871819 119.673042,45.7365999 119.803938,45.6093665 C119.934835,45.4821332 120.096898,45.3826475 120.290126,45.3102328 C120.483355,45.2381565 120.705801,45.2019491 120.957076,45.2019491 C121.195885,45.2019491 121.405086,45.2354494 121.585069,45.3021115 C121.764662,45.3687737 121.926335,45.4645371 122.069698,45.5890633 L121.86712,45.8327017 Z M123.350616,45.5430428 C123.472759,45.4434849 123.611439,45.3604419 123.762006,45.2966973 C123.911602,45.2334191 124.0873,45.2019491 124.288709,45.2019491 C124.463238,45.2019491 124.617899,45.2276665 124.753081,45.2791012 C124.888263,45.330536 125.00085,45.4026123 125.091231,45.4956687 C125.181612,45.588725 125.250177,45.6997158 125.296926,45.828641 C125.343675,45.9575663 125.367049,46.0996887 125.367049,46.2550081 L125.367049,48.0227396 L124.597252,48.0227396 L124.597252,46.2550081 C124.597252,46.0854764 124.552451,45.9538441 124.463238,45.8611262 C124.373636,45.7680698 124.237675,45.7217109 124.054965,45.7217109 C123.922121,45.7217109 123.797457,45.7477666 123.680975,45.8002166 C123.558822,45.8562857 123.447386,45.9284248 123.350616,46.0140769 L123.350616,48.0227396 L122.580819,48.0227396 L122.580819,44 L123.350616,44 L123.350616,45.5430428 Z M126.894178,45.2452626 L126.894178,48.0227396 L126.121264,48.0227396 L126.121264,45.2452626 L126.894178,45.2452626 Z M127.000142,44.4358419 C127.000142,44.4933676 126.986507,44.5475095 126.959626,44.5982675 C126.906191,44.6986272 126.8118,44.7782045 126.694716,44.8216026 C126.572854,44.8671365 126.434796,44.8671365 126.312934,44.8216026 C126.197378,44.7781449 126.104986,44.6983759 126.054257,44.5982675 C126.002281,44.4928076 126.002281,44.373462 126.054257,44.2680022 C126.10394,44.1666407 126.19654,44.0857229 126.312934,44.0419599 C126.434796,43.996426 126.572854,43.996426 126.694716,44.0419599 C126.813005,44.0851664 126.907786,44.1660406 126.959626,44.2680022 C126.986896,44.3204521 127.000142,44.3762859 127.000142,44.4358419 Z M128.39949,45.5863563 C128.46377,45.5305225 128.531945,45.4784109 128.603627,45.4306984 C128.746978,45.3348139 128.91218,45.2665264 129.088256,45.2303736 C129.179806,45.2114239 129.279147,45.2019491 129.387449,45.2019491 C129.561978,45.2019491 129.716638,45.2276665 129.85182,45.2791012 C129.987002,45.330536 130.099589,45.4026123 130.18997,45.4956687 C130.280351,45.588725 130.348916,45.6997158 130.395665,45.828641 C130.442414,45.9575663 130.465788,46.0996887 130.465788,46.2550081 L130.465788,48.0227396 L129.695991,48.0227396 L129.695991,46.2550081 C129.695991,46.0854764 129.65119,45.9538441 129.561978,45.8611262 C129.472376,45.7680698 129.336415,45.7217109 129.153704,45.7217109 C129.02086,45.7217109 128.896196,45.7477666 128.779714,45.8002166 C128.657561,45.8562857 128.546125,45.9284248 128.449355,46.0140769 L128.449355,48.0227396 L127.679558,48.0227396 L127.679558,45.2452626 L128.150163,45.2452626 C128.249894,45.2452626 128.315342,45.285869 128.346508,45.3670818 L128.39949,45.5863563 Z M132.363791,46.5663238 C132.459236,46.5663238 132.542605,46.555157 132.613118,46.5324851 C132.683631,46.5098132 132.742456,46.4786816 132.789205,46.4390904 C132.835954,46.3994992 132.871016,46.3514483 132.895169,46.2956145 C132.919613,46.2365907 132.931749,46.1742553 132.93101,46.1115322 C132.93101,45.9744857 132.883872,45.8655252 132.789205,45.7853276 C132.694539,45.7051299 132.552734,45.6648619 132.363791,45.6648619 C132.174848,45.6648619 132.032653,45.7051299 131.938377,45.7853276 C131.84371,45.8655252 131.796572,45.9744857 131.796572,46.1115322 C131.796572,46.1765024 131.808259,46.2367352 131.832413,46.2929074 C131.856177,46.3487412 131.891628,46.3971305 131.938377,46.4377369 C131.985125,46.4783433 132.044341,46.5098132 132.116022,46.5324851 C132.187704,46.555157 132.270293,46.5663238 132.363791,46.5663238 Z M133.233319,48.1472658 C133.233319,48.093124 133.21462,48.0491337 133.177221,48.0146183 C133.134606,47.9775454 133.082168,47.9501236 133.024508,47.9347591 C132.951039,47.9141016 132.875326,47.9000415 132.798555,47.8927991 C132.707417,47.8834098 132.615948,47.8766384 132.524295,47.8724959 C132.424597,47.8678585 132.324864,47.8637978 132.225103,47.860314 C132.12454,47.8568695 132.024195,47.8496439 131.924352,47.8386573 C131.845389,47.8757483 131.775099,47.9253264 131.717099,47.9848403 C131.664655,48.0394794 131.636463,48.1086209 131.637626,48.1797509 C131.637626,48.2284786 131.65165,48.2741608 131.6797,48.3164591 C131.712345,48.3627106 131.758607,48.4005582 131.813713,48.4260964 C131.874876,48.4565512 131.954349,48.4805766 132.052132,48.4978343 C132.149525,48.5147537 132.269125,48.5235517 132.41054,48.5235517 C132.553903,48.5235517 132.677398,48.5140769 132.781414,48.4951272 C132.871243,48.4805516 132.957961,48.4540742 133.038532,48.4166215 C133.099087,48.3889265 133.150153,48.3478386 133.18657,48.2975095 C133.217568,48.2520435 133.233729,48.2001048 133.233319,48.1472658 Z M134,45.3400108 L134,45.5890633 C134,45.6685842 133.94507,45.7173119 133.834821,45.7352463 L133.548095,45.7812669 C133.591727,45.8770303 133.613543,45.9815918 133.613543,46.0952897 C133.613543,46.2323362 133.581988,46.3565241 133.518487,46.4675149 C133.455943,46.5776098 133.365987,46.6742408 133.255135,46.7504061 C133.142938,46.828235 133.010483,46.8881294 132.85777,46.9304277 C132.69791,46.9737758 132.531254,46.9952385 132.363791,46.9940444 C132.303413,46.9941363 132.243073,46.9914253 132.183029,46.9859231 C132.125595,46.9806027 132.068416,46.9733785 132.011616,46.9642664 C131.911886,47.0167163 131.86202,47.0752572 131.86202,47.1402274 C131.86202,47.1960612 131.891628,47.2373443 131.950843,47.2634001 C132.010058,47.2894559 132.088362,47.3080671 132.186145,47.3188955 C132.283539,47.3297239 132.394957,47.3364916 132.51962,47.3391987 C132.644284,47.3419058 132.772064,47.3476584 132.902961,47.3567948 C133.033857,47.3659312 133.161638,47.381497 133.286301,47.4041689 C133.410965,47.4268408 133.521993,47.4623714 133.619776,47.5110991 C133.71717,47.5598267 133.795863,47.6261505 133.855079,47.7100704 C133.914294,47.7939903 133.943901,47.9019356 133.943901,48.0335679 C133.943901,48.1564023 133.90884,48.2755143 133.839496,48.3909042 C133.765152,48.511285 133.662087,48.6164978 133.537187,48.6995127 C133.390988,48.7962148 133.226447,48.8699659 133.050999,48.9174337 C132.858939,48.9725907 132.639999,49 132.394957,49 C132.153811,49 131.94422,48.9796968 131.765406,48.9390904 C131.586592,48.898484 131.438164,48.8443422 131.319734,48.7766649 C131.211321,48.7179407 131.120524,48.637682 131.054824,48.5425014 C130.998121,48.4587882 130.968008,48.3635045 130.967559,48.2663779 C130.967559,48.1364375 131.01275,48.0278154 131.103131,47.9401733 C131.193512,47.8525311 131.317396,47.7828235 131.475563,47.7303736 C131.394397,47.6954913 131.32471,47.6433412 131.272985,47.5787764 C131.223119,47.5154981 131.198187,47.4325934 131.198187,47.3297239 C131.198187,47.2881023 131.207147,47.2451272 131.224678,47.201137 C131.242209,47.1571467 131.26831,47.1131565 131.302592,47.069843 C131.339403,47.0241076 131.382877,46.9827057 131.431931,46.9466703 C131.483744,46.9077558 131.544907,46.8732404 131.61581,46.8424472 C131.460378,46.7719172 131.328793,46.6674181 131.234027,46.5392528 C131.141699,46.4130347 131.095339,46.2651597 131.095339,46.0952897 C131.095339,45.9582431 131.126895,45.8340552 131.190395,45.7230644 C131.253896,45.6120736 131.342329,45.5173254 131.455305,45.4388197 C131.568282,45.360314 131.702685,45.3000812 131.857345,45.2587981 C132.012006,45.2171765 132.180691,45.1965349 132.363791,45.1965349 C132.500921,45.1965349 132.62987,45.2087168 132.750248,45.2330807 C132.871016,45.2574445 132.980875,45.2929751 133.080606,45.3400108 L134,45.3400108 Z" id="Shape" fill="#31A689" fill-rule="nonzero"></path>
        </g>
    </g>
</svg>