<?xml version="1.0" encoding="UTF-8"?>
<svg width="103px" height="81px" viewBox="0 0 103 81" version="1.1" xmlns="http://www.w3.org/2000/svg" xmlns:xlink="http://www.w3.org/1999/xlink">
    <!-- Generator: Sketch 48.2 (47327) - http://www.bohemiancoding.com/sketch -->
    <title>Digital Market</title>
    <desc>Created with Sketch.</desc>
    <defs>
        <rect id="path-1" x="0" y="0" width="113" height="94"></rect>
    </defs>
    <g id="Desktop" stroke="none" stroke-width="1" fill="none" fill-rule="evenodd" transform="translate(-135.000000, -665.000000)">
        <g id="Digital-Market" transform="translate(130.000000, 660.000000)">
            <mask id="mask-2" fill="white">
                <use xlink:href="#path-1"></use>
            </mask>
            <g id="Mask"></g>
            <g mask="url(#mask-2)">
                <g transform="translate(0.000000, -35.000000)">
                    <path d="M107,100.652777 C107,102.503105 105.348938,104 103.31478,104 L9.6831375,104 C7.64897959,104 6,102.503105 6,100.652777 L6,44.3434434 C6,42.496895 7.64897959,41 9.6831375,41 L103.31478,41 C105.348938,41 107,42.496895 107,44.3434434 L107,100.652777 Z" id="Fill-445" stroke="none" fill="#4FB2FC" fill-rule="evenodd"></path>
                    <path d="M103.244032,41 L99,41 C101.07321,41 102.755968,42.4969399 102.755968,44.3435437 L102.755968,100.654566 C102.755968,102.50495 101.07321,104 99,104 L103.244032,104 C105.317241,104 107,102.50495 107,100.654566 L107,44.3435437 C107,42.4969399 105.317241,41 103.244032,41" id="Fill-446" stroke="none" fill="#FFFFFF" fill-rule="evenodd"></path>
                    <path d="M10.2451579,100.652777 L10.2451579,44.3434434 C10.2451579,42.496895 11.9262404,41 14,41 L9.75484213,41 C7.68108252,41 6,42.496895 6,44.3434434 L6,100.652777 C6,102.503105 7.68108252,104 9.75484213,104 L14,104 C11.9262404,104 10.2451579,102.503105 10.2451579,100.652777 L0.5,0.5" id="Fill-447" stroke="none" fill="#0096FE" fill-rule="evenodd"></path>
                    <path d="M6,92 L6,101.391945 C6,103.388497 7.64897959,105 9.6831375,105 L103.316863,105 C105.348938,105 107,103.388497 107,101.391945 L107,92 L6,92 Z" id="Fill-448" stroke="none" fill="#F2F2F2" fill-rule="evenodd"></path>
                    <path d="M9.61111111,101.391945 L9.61111111,92 L6,92 L6,101.391945 C6,103.38646 7.51724138,105 9.38888889,105 L13,105 C11.1283525,105 9.61111111,103.38646 9.61111111,101.391945" id="Fill-449" stroke="none" fill="#E6E7E8" fill-rule="evenodd"></path>
                    <path d="M103.389877,92 L103.389877,101.391945 C103.389877,103.388497 101.871135,105 100,105 L103.610123,105 C105.481259,105 107,103.388497 107,101.391945 L107,92 L103.389877,92 Z" id="Fill-450" stroke="none" fill="#FFFFFF" fill-rule="evenodd"></path>
                    <path d="M107,100.652777 C107,102.503105 105.348938,104 103.31478,104 L9.6831375,104 C7.64897959,104 6,102.503105 6,100.652777 L6,44.3434434 C6,42.496895 7.64897959,41 9.6831375,41 L103.31478,41 C105.348938,41 107,42.496895 107,44.3434434 L107,100.652777 Z" id="Stroke-451" stroke="#000000" stroke-width="1" fill="none" stroke-linecap="round" stroke-linejoin="round"></path>
                    <path d="M80,120 L33,120" id="Stroke-452" stroke="#000000" stroke-width="1" fill="none" stroke-linecap="round" stroke-linejoin="round"></path>
                    <path d="M6,92 L6,101.391945 C6,103.388497 7.64897959,105 9.6831375,105 L103.316863,105 C105.348938,105 107,103.388497 107,101.391945 L107,92 L6,92 Z" id="Stroke-453" stroke="#000000" stroke-width="1" fill="none" stroke-linecap="round" stroke-linejoin="round"></path>
                    <path d="M59,99 C59,99.5508982 58.3263473,100 57.5,100 C56.6736527,100 56,99.5508982 56,99 C56,98.4451098 56.6736527,98 57.5,98 C58.3263473,98 59,98.4451098 59,99 Z" id="Stroke-454" stroke="#000000" stroke-width="1" fill="none" stroke-linecap="round" stroke-linejoin="round"></path>
                    <polygon id="Fill-455" stroke="none" fill="#F2F2F2" fill-rule="evenodd" points="71.2133548 104 75 119 39 119 42.5448125 104.001854"></polygon>
                    <polyline id="Fill-456" stroke="none" fill="#E2E2E2" fill-rule="evenodd" points="42.5943114 104 39 119 42.4056886 119 46 104"></polyline>
                    <polyline id="Fill-457" stroke="none" fill="#FFFFFF" fill-rule="evenodd" points="71.4056886 104 75 119 71.5943114 119 68 104"></polyline>
                    <polygon id="Stroke-458" stroke="#000000" stroke-width="1" fill="none" stroke-linecap="round" stroke-linejoin="round" points="71.2133548 104 75 119 39 119 42.5448125 104.001854"></polygon>
                    <path d="M39.9994633,71.3119584 C39.5586762,71.7124976 38.9762075,71.9628346 38.3268336,71.9628346 L34.9599284,71.9628346 C34.1570662,71.9628346 33.4506261,71.5815521 33,71 L39.4465116,80.5185827 C39.757424,81 40.1608229,81 40.434347,81 L43.5080501,81 C43.7815742,81 44,80.7862507 44,80.5185827 L39.9994633,71.3119584 Z" id="Fill-459" stroke="none" fill="#FCFCFC" fill-rule="evenodd"></path>
                    <path d="M41.9526393,80.5185827 L35.8103484,71.9628346 L35.0780305,71.9628346 C34.2267891,71.9628346 33.4777801,71.5796264 33,71 L39.8328813,80.5185827 C40.1646151,81 40.5923221,81 40.880242,81 L43,81 C42.7099937,81 42.2822867,81 41.9526393,80.5185827" id="Fill-460" stroke="none" fill="#F1F2F2" fill-rule="evenodd"></path>
                    <path d="M41.5653924,72 C40.889336,72.6153846 39.9959759,73 39,73 L42,73 L41.5653924,72 Z" id="Fill-461" stroke="none" fill="#F1F2F2" fill-rule="evenodd"></path>
                    <path d="M75,67 L80,67" id="Stroke-462" stroke="#000000" stroke-width="1" fill="none" stroke-linecap="round" stroke-linejoin="round"></path>
                    <path d="M75,61 L79,57" id="Stroke-463" stroke="#000000" stroke-width="1" fill="none" stroke-linecap="round" stroke-linejoin="round"></path>
                    <path d="M79,76 L75,72" id="Stroke-464" stroke="#000000" stroke-width="1" fill="none" stroke-linecap="round" stroke-linejoin="round"></path>
                    <path d="M42,70.5171731 C42,71.8883752 40.8011377,73 39.3249585,73 L35.6750415,73 C34.1967291,73 33,71.8883752 33,70.5171731 L33,63.4828269 C33,62.1116248 34.1967291,61 35.6750415,61 L39.3249585,61 C40.8011377,61 42,62.1116248 42,63.4828269 L42,70.5171731 Z" id="Fill-465" stroke="none" fill="#FCFCFC" fill-rule="evenodd"></path>
                    <path d="M35.2182786,70.5171731 L35.2182786,63.4828269 C35.2182786,62.1116248 36.4627329,61 38,61 L35.7817214,61 C34.2444543,61 33,62.1116248 33,63.4828269 L33,70.5171731 C33,71.8883752 34.2444543,73 35.7817214,73 L38,73 C36.4627329,73 35.2182786,71.8883752 35.2182786,70.5171731" id="Fill-466" stroke="none" fill="#F1F2F2" fill-rule="evenodd"></path>
                    <path d="M39.7817214,70.5171731 L39.7817214,63.4828269 C39.7817214,62.1116248 38.5372671,61 37,61 L39.2182786,61 C40.7555457,61 42,62.1116248 42,63.4828269 L42,70.5171731 C42,71.8883752 40.7555457,73 39.2182786,73 L37,73 C38.5372671,73 39.7817214,71.8883752 39.7817214,70.5171731" id="Fill-467" stroke="none" fill="#FFFFFF" fill-rule="evenodd"></path>
                    <path d="M42,70.5171731 C42,71.8883752 40.8011377,73 39.3249585,73 L35.6750415,73 C34.1967291,73 33,71.8883752 33,70.5171731 L33,63.4828269 C33,62.1116248 34.1967291,61 35.6750415,61 L39.3249585,61 C40.8011377,61 42,62.1116248 42,63.4828269 L42,70.5171731 Z" id="Stroke-468" stroke="#000000" stroke-width="1" fill="none" stroke-linecap="round" stroke-linejoin="round"></path>
                    <path d="M66,55 L42.0168821,62.0590535 L42,62.0628004 C42.2025851,62.3925226 42.3165392,62.7709538 42.3165392,63.1756129 L42.3165392,69.8262605 C42.3165392,70.2271728 42.2025851,70.6037306 42.0042205,70.9353262 L42.0168821,70.9428199 L66,78 L66,55 Z" id="Fill-469" stroke="none" fill="#80E7FF" fill-rule="evenodd"></path>
                    <path d="M46,62 L43.0225989,62.6432641 L43,62.6469399 C43.2711864,62.9704099 43.4265537,63.3416651 43.4265537,63.738651 L43.4265537,70.2631869 C43.4265537,70.656497 43.2711864,71.0259144 43.0056497,71.3512222 L43.0225989,71.3585738 L46,72 L46,62 Z" id="Fill-470" stroke="none" fill="#4FB2FC" fill-rule="evenodd"></path>
                    <path d="M66,55 L42.0168821,62.0590535 C42.2025851,62.3925226 42.3165392,62.7709538 42.3165392,63.1756129 L42.3165392,69.8262605 C42.3165392,70.2271728 42.2025851,70.6037306 42.0042205,70.9353262 L66,78 L66,55 Z" id="Stroke-471" stroke="#000000" stroke-width="1" fill="none" stroke-linecap="round" stroke-linejoin="round"></path>
                    <path d="M71,77.6437526 C71,78.9450481 69.9252874,80 68.6015326,80 L67.4022989,80 C66.0766284,80 65,78.9450481 65,77.6437526 L65,55.3524864 C65,54.0530715 66.0766284,53 67.4022989,53 L68.6015326,53 C69.9252874,53 71,54.0530715 71,55.3524864 L71,77.6437526 Z" id="Fill-472" stroke="none" fill="#83CDFF" fill-rule="evenodd"></path>
                    <path d="M69.3549488,53 L68.0345563,53 C67.665529,53 67.3156997,53.0676975 67,53.1880485 C67.987628,53.5284162 68.6915529,54.3708734 68.6915529,55.3712913 L68.6915529,77.660677 C68.6915529,78.6366486 68.028157,79.4715838 67.0831911,79.8307564 C67.3796928,79.9323025 67.6975256,80 68.0345563,80 L69.3549488,80 C70.8161263,80 72,78.9469285 72,77.6437526 L72,55.3543669 C72,54.0549519 70.8161263,53 69.3549488,53" id="Fill-473" stroke="none" fill="#FFFFFF" fill-rule="evenodd"></path>
                    <path d="M71,77.6437526 C71,78.9450481 69.9252874,80 68.6015326,80 L67.4022989,80 C66.0766284,80 65,78.9450481 65,77.6437526 L65,55.3524864 C65,54.0530715 66.0766284,53 67.4022989,53 L68.6015326,53 C69.9252874,53 71,54.0530715 71,55.3524864 L71,77.6437526 Z" id="Stroke-474" stroke="#000000" stroke-width="1" fill="none" stroke-linecap="round" stroke-linejoin="round"></path>
                    <path d="M39.9994633,71.3119584 C39.5586762,71.7124976 38.9762075,71.9628346 38.3268336,71.9628346 L34.9599284,71.9628346 C34.1570662,71.9628346 33.4506261,71.5815521 33,71 L39.4465116,80.5185827 C39.757424,81 40.1608229,81 40.434347,81 L43.5080501,81 C43.7815742,81 44,80.7862507 44,80.5185827 L39.9994633,71.3119584 Z" id="Stroke-475" stroke="#000000" stroke-width="1" fill="none" stroke-linecap="round" stroke-linejoin="round"></path>
                </g>
            </g>
        </g>
    </g>
</svg>