<?xml version="1.0" encoding="UTF-8"?>
<svg width="103px" height="86px" viewBox="0 0 103 86" version="1.1" xmlns="http://www.w3.org/2000/svg" xmlns:xlink="http://www.w3.org/1999/xlink">
    <!-- Generator: Sketch 48.2 (47327) - http://www.bohemiancoding.com/sketch -->
    <title>Graphic Design</title>
    <desc>Created with Sketch.</desc>
    <defs></defs>
    <g id="Desktop" stroke="none" stroke-width="1" fill="none" fill-rule="evenodd" transform="translate(-136.000000, -855.000000)">
        <g id="Graphic-Design" transform="translate(137.000000, 856.000000)">
            <path d="M28.7028908,66 L4.7083477,66 C2.10625824,66 0,64.2377557 0,62.0581377 L0,3.94357987 C0,1.76567949 2.10625824,0 4.7083477,0 L96.297799,0 C98.8957906,0 101,1.76567949 101,3.94357987 L101,62.0581377 C101,64.2377557 98.8957906,66 96.297799,66 L73.1187139,66 L28.7028908,66 Z" id="Fill-1291" fill="#F2F2F2"></path>
            <path d="M96.1909197,0 L92,0 C94.6570431,0 96.8090803,1.76567949 96.8090803,3.94357987 L96.8090803,62.0581377 C96.8090803,64.2360381 94.6570431,66 92,66 L96.1909197,66 C98.8479627,66 101,64.2360381 101,62.0581377 L101,3.94357987 C101,1.76567949 98.8479627,0 96.1909197,0" id="Fill-1292" fill="#FFFFFF"></path>
            <path d="M4.18896905,62.0581377 L4.18896905,3.94357987 C4.18896905,1.76567949 6.34209914,0 9,0 L4.81103095,0 C2.15313009,0 0,1.76567949 0,3.94357987 L0,62.0581377 C0,64.2377557 2.15313009,66 4.81103095,66 L9,66 C6.34209914,66 4.18896905,64.2377557 4.18896905,62.0581377" id="Fill-1293" fill="#E2E2E2"></path>
            <path d="M28.7028908,66 L4.7083477,66 C2.10625824,66 0,64.2377557 0,62.0581377 L0,3.94357987 C0,1.76567949 2.10625824,0 4.7083477,0 L96.297799,0 C98.8957906,0 101,1.76567949 101,3.94357987 L101,62.0581377 C101,64.2377557 98.8957906,66 96.297799,66 L73.1187139,66 L28.7028908,66 Z" id="Stroke-1294" stroke="#000000" stroke-linecap="round" stroke-linejoin="round"></path>
            <path d="M0,15 L0,4.01679496 C0,1.79846046 2.10625824,0 4.70629881,0 L96.297799,0 C98.8957906,0 101,1.79846046 101,4.01679496 L101,15 L0,15 Z" id="Stroke-1295" stroke="#000000" stroke-linecap="round" stroke-linejoin="round"></path>
            <path d="M9,7.000999 C9,7.55244755 8.5508982,8 8,8 C7.44710579,8 7,7.55244755 7,7.000999 C7,6.44555445 7.44710579,6 8,6 C8.5508982,6 9,6.44555445 9,7.000999 Z" id="Stroke-1296" stroke="#FB5B3A" stroke-width="2" stroke-linecap="round" stroke-linejoin="round"></path>
            <path d="M17,7.000999 C17,7.55244755 16.5528942,8 16,8 C15.4471058,8 15,7.55244755 15,7.000999 C15,6.44555445 15.4471058,6 16,6 C16.5528942,6 17,6.44555445 17,7.000999 Z" id="Stroke-1297" stroke="#00E9C4" stroke-width="2" stroke-linecap="round" stroke-linejoin="round"></path>
            <path d="M24,7.000999 C24,7.55244755 23.5508982,8 23,8 C22.4471058,8 22,7.55244755 22,7.000999 C22,6.44555445 22.4471058,6 23,6 C23.5508982,6 24,6.44555445 24,7.000999 Z" id="Stroke-1298" stroke="#FFE843" stroke-width="2" stroke-linecap="round" stroke-linejoin="round"></path>
            <path d="M64,50.1312139 C64,50.1312139 61.0245696,64.0964186 27.144362,81.3280433 C25.453086,82.0712798 23.964358,82.364754 22.7551464,81.3280433 C21.5378327,80.2843865 21.973311,78.8170155 22.791605,77.5962322 C42.8904452,48.5509681 59.1753061,46 59.1753061,46 L64,50.1312139 Z" id="Fill-1299" fill="#4FB2FC"></path>
            <path d="M23.0218431,80.962151 C22.2962674,80.3428038 22.9835488,79.1041093 23.9167197,77.9978864 C45.0289557,53.4631341 58.2142777,47.5793354 60,46.8602045 L58.992256,46 C58.992256,46 42.7877331,48.5272808 22.7880465,77.3045615 C21.9737894,78.5122886 21.5404595,79.9660342 22.7497522,81 L23.0218431,80.962151 Z" id="Fill-1300" fill="#0096FE"></path>
            <path d="M22,82.318816 C23.2334135,83.3697628 24.7473359,83.0722586 26.4695772,82.318816 C60.9721554,64.8505655 64,50.6935897 64,50.6935897 L63.1873496,50 C62.3210725,51.5649778 55.2609144,63.0813836 25.8528704,81.5160827 C24.2976968,82.4121161 23.0168443,82.9085433 22.2784462,82.2800876 L22,82.318816 Z" id="Fill-1301" fill="#FFFFFF"></path>
            <path d="M64,50.1312139 C64,50.1312139 61.0245696,64.0964186 27.144362,81.3280433 C25.453086,82.0712798 23.964358,82.364754 22.7551464,81.3280433 C21.5378327,80.2843865 21.973311,78.8170155 22.791605,77.5962322 C27.0048213,71.5076232 31.0504415,66.5832418 34.8135906,62.6025352 C49.0022694,47.5935716 59.1753061,46 59.1753061,46 L64,50.1312139 Z" id="Stroke-1302" stroke="#000000" stroke-linecap="round" stroke-linejoin="round"></path>
            <path d="M64.932888,51.5357429 C68.1348035,52.5338308 71.9346043,51.9468227 74.7407072,49.539567 C74.7407072,49.539567 85.8317924,42.1488388 78.4863441,31.300511 C76.8885112,28.9507367 75.8010682,30.5027374 75.8010682,30.5027374 C75.8010682,30.5027374 78.0134523,37.835984 67.7098258,38.1721637 C65.2932858,38.2522895 62.7975833,38.4038316 61.0435086,39.8704809 C58.9894496,41.5862168 58.556139,44.5717714 59.420677,46.930255 L64.932888,51.5357429 Z" id="Fill-1303" fill="#B6B6B5"></path>
            <path d="M60.772082,48 C59.9047826,45.6486292 60.9936091,43.96759 63.0521392,42.2570285 C64.8118167,40.7965389 67.3154908,40.6437172 69.7418394,40.5638331 C80.0783772,40.2286672 77.1253792,31.1670328 77.1253792,31.1670328 C77.1253792,31.1670328 77.9655103,31.2781759 79,32.0631239 C78.8432591,31.8061055 78.726226,31.5577702 78.5485863,31.2972786 C76.9456497,28.9545908 75.8547333,30.5001743 75.8547333,30.5001743 C75.8547333,30.5001743 78.0741839,37.8113052 67.7376462,38.1482077 C65.3133874,38.2280918 62.8097133,38.3791769 61.0500358,39.8396665 C58.9894159,41.5519646 58.5547212,44.5267787 59.4220207,46.8798861 L60.772082,48 Z" id="Fill-1304" fill="#838381"></path>
            <path d="M79.4614195,31.2962828 C78.5062576,29.9042459 77.7383412,29.8868237 77.264968,30.099375 C84.0836455,40.7077762 73.2234131,47.9049031 73.2234131,47.9049031 C70.5851467,50.1488875 67.0821853,50.7935103 64,50.067003 L65.7735715,51.5356977 C69.0072361,52.533992 72.8447146,51.9468625 75.6786419,49.5373669 C75.6786419,49.5373669 86.8797029,42.1468532 79.4614195,31.2962828" id="Fill-1305" fill="#FFFFFF"></path>
            <path d="M64.932888,51.5357429 C68.1348035,52.5338308 71.9346043,51.9468227 74.7407072,49.539567 C74.7407072,49.539567 85.8317924,42.1488388 78.4863441,31.300511 C76.8885112,28.9507367 75.8010682,30.5027374 75.8010682,30.5027374 C75.8010682,30.5027374 78.0134523,37.835984 67.7098258,38.1721637 C65.2932858,38.2522895 62.7975833,38.4038316 61.0435086,39.8704809 C58.9894496,41.5862168 58.556139,44.5717714 59.420677,46.930255 L64.932888,51.5357429 Z" id="Stroke-1306" stroke="#000000" stroke-linecap="round" stroke-linejoin="round"></path>
            <polygon id="Fill-1307" fill="#0077FF" points="65.5286219 78 25 44.6529152 35.5095406 36 76 69.3086584"></polygon>
            <polygon id="Fill-1308" fill="#094E9D" points="25 43.7519156 64.7737045 77 67 75.1244402 27.3719409 42"></polygon>
            <polygon id="Fill-1309" fill="#FFFFFF" points="33 37.8945225 72.790901 71 75 69.1454536 35.1611205 36"></polygon>
            <path d="M35.3132877,36 L79.1645218,72.8992112 L80.7828634,74.3067485 C82.4074455,75.6722174 82.4012051,77.8895706 80.791184,79.2532866 L76.3688262,82.9798422 C74.7504846,84.3400526 72.1191193,84.3400526 70.4986975,82.9798422 L68.8512341,81.5880806 L25,44.6836109 L35.3132877,36 Z" id="Stroke-1310" stroke="#000000" stroke-linecap="round" stroke-linejoin="round"></path>
            <path d="M33,42 L67,71" id="Fill-1311" fill="#FF5E2F"></path>
            <path d="M33,42 L67,71" id="Stroke-1312" stroke="#000000" stroke-linecap="round" stroke-linejoin="round"></path>
            <path d="M65,77.3791196 L69.0297512,80.6829444 L70.6547832,82.0199663 C72.2551936,83.3266779 74.8486791,83.3266779 76.4470376,82.0199663 L80.8091817,78.4399808 C82.3952294,77.1315853 82.4013848,74.9997594 80.8009745,73.6896801 L79.202616,72.3358191 L75.1338804,69 L65,77.3791196 Z" id="Fill-1314" fill="#B6B6B5"></path>
            <path d="M72.4851105,80.3246128 L70.9634966,78.9875507 L67.1902017,75.6836265 L74.6253602,69.119561 L74.4889529,69 L65,77.3776876 L68.7732949,80.6816118 L70.2949087,82.0186739 C71.7915466,83.3271087 74.221902,83.3271087 75.7166186,82.0186739 L77,80.8937904 C75.5494717,81.5741092 73.7089337,81.3939257 72.4851105,80.3246128" id="Fill-1315" fill="#838381"></path>
            <path d="M80.8240308,73.7496953 L79.2584197,72.3780161 L75.2679225,69 L73,70.936388 L76.6644959,74.039727 L78.230107,75.4114063 C79.8017551,76.7387278 79.7957181,78.8986108 78.2381564,80.2242262 L74.9640571,83 C75.5436149,82.8413356 76.0929875,82.5803071 76.5538164,82.1896174 L80.8320802,78.5625152 C82.3876295,77.2368998 82.3936665,75.0770168 80.8240308,73.7496953" id="Fill-1316" fill="#FFFFFF"></path>
            <path d="M65,77.3791196 L69.0297512,80.6829444 L70.6547832,82.0199663 C72.2551936,83.3266779 74.8486791,83.3266779 76.4470376,82.0199663 L80.8091817,78.4399808 C82.3952294,77.1315853 82.4013848,74.9997594 80.8009745,73.6896801 L79.202616,72.3358191 L75.1338804,69 L67.1954347,75.5655521 L65,77.3791196 Z" id="Stroke-1317" stroke="#000000" stroke-linecap="round" stroke-linejoin="round"></path>
            <polygon id="Fill-1318" fill="#B6B6B5" points="25.6099542 44 20 30 36 35.0265235"></polygon>
            <polygon id="Fill-1319" fill="#838381" points="22 32 25.7645855 44 28 42.0811246"></polygon>
            <polygon id="Fill-1320" fill="#FFFFFF" points="36 35.820034 22 32 33.7960865 38"></polygon>
            <polygon id="Fill-1321" fill="#094E9D" points="26 31.7951713 20 30 22.1048482 35"></polygon>
            <polygon id="Stroke-1322" stroke="#000000" stroke-linecap="round" stroke-linejoin="round" points="25.6099542 44 20 30 36 35.0265235"></polygon>
        </g>
    </g>
</svg>