<?xml version="1.0" encoding="UTF-8"?>
<svg width="114px" height="121px" viewBox="0 0 114 121" version="1.1" xmlns="http://www.w3.org/2000/svg" xmlns:xlink="http://www.w3.org/1999/xlink">
    <!-- Generator: Sketch 48.2 (47327) - http://www.bohemiancoding.com/sketch -->
    <title>Product Engineering</title>
    <desc>Created with Sketch.</desc>
    <defs></defs>
    <g id="Desktop" stroke="none" stroke-width="1" fill="none" fill-rule="evenodd" transform="translate(-138.000000, -1057.000000)">
        <g id="Product-Engineering" transform="translate(139.000000, 1058.000000)">
            <path d="M31.8289482,96 L5.22113805,96 C2.33792474,96 0,93.4342372 0,90.2663821 L0,5.73361786 C0,2.56826107 2.33792474,0 5.22113805,0 L106.785678,0 C109.666619,0 112,2.56826107 112,5.73361786 L112,90.2663821 C112,93.4342372 109.666619,96 106.785678,96 L81.0821381,96 L31.8289482,96 Z" id="Fill-125" fill="#F2F2F2"></path>
            <path d="M106.656577,0 L102,0 C104.95227,0 107.343423,2.56576276 107.343423,5.73361786 L107.343423,90.2663821 C107.343423,93.4317389 104.95227,96 102,96 L106.656577,96 C109.608847,96 112,93.4317389 112,90.2663821 L112,5.73361786 C112,2.56576276 109.608847,0 106.656577,0" id="Fill-126" fill="#FFFFFF"></path>
            <path d="M4.65332713,90.2663821 L4.65332713,5.73361786 C4.65332713,2.56576276 7.04513727,0 10,0 L5.34667287,0 C2.39181014,0 0,2.56576276 0,5.73361786 L0,90.2663821 C0,93.4342372 2.39181014,96 5.34667287,96 L10,96 C7.04513727,96 4.65332713,93.4342372 4.65332713,90.2663821" id="Fill-127" fill="#E2E2E2"></path>
            <path d="M31.8289482,96 L5.22113805,96 C2.33792474,96 0,93.4342372 0,90.2663821 L0,5.73361786 C0,2.56826107 2.33792474,0 5.22113805,0 L106.785678,0 C109.666619,0 112,2.56826107 112,5.73361786 L112,90.2663821 C112,93.4342372 109.666619,96 106.785678,96 L81.0821381,96 L31.8289482,96 Z" id="Stroke-128" stroke="#000000" stroke-linecap="round" stroke-linejoin="round"></path>
            <path d="M0,21 L0,5.62171935 C0,2.51568879 2.3356527,0 5.22113805,0 L106.785678,0 C109.666619,0 112,2.51568879 112,5.62171935 L112,21 L0,21 Z" id="Stroke-129" stroke="#000000" stroke-linecap="round" stroke-linejoin="round"></path>
            <path d="M11,9.00199601 C11,9.5508982 10.551346,10 10.000997,10 C9.44865404,10 9,9.5508982 9,9.00199601 C9,8.44510978 9.44865404,8 10.000997,8 C10.551346,8 11,8.44510978 11,9.00199601 Z" id="Stroke-130" stroke="#FB5B3A" stroke-width="2" stroke-linecap="round" stroke-linejoin="round"></path>
            <path d="M19,9.00199601 C19,9.5508982 18.5528942,10 18,10 C17.4491018,10 17,9.5508982 17,9.00199601 C17,8.44510978 17.4491018,8 18,8 C18.5528942,8 19,8.44510978 19,9.00199601 Z" id="Stroke-131" stroke="#00E9C4" stroke-width="2" stroke-linecap="round" stroke-linejoin="round"></path>
            <path d="M26,9.00199601 C26,9.5508982 25.5508982,10 24.998004,10 C24.4491018,10 24,9.5508982 24,9.00199601 C24,8.44510978 24.4491018,8 24.998004,8 C25.5508982,8 26,8.44510978 26,9.00199601 Z" id="Stroke-132" stroke="#FFE843" stroke-width="2" stroke-linecap="round" stroke-linejoin="round"></path>
            <polygon id="Fill-138" fill="#F2F2F2" points="52.4251133 95 50 92.2894038 75.9368285 63.3017671 76.9711327 59.8188232 79.4974757 57 84 62.0325587 81.4780583 64.851382 78.3575405 66.014823"></polygon>
            <path d="M38.8405747,118.366795 L52.5093665,103.39411 C54.0907078,101.662214 54.4046676,99.090917 53.4951077,97 L33,119.446386 C34.9091523,120.442542 37.2569248,120.101219 38.8405747,118.366795" id="Fill-142" fill="#FFFFFF"></path>
            <text id="&gt;_" font-family="Avenir-Black, Avenir" font-size="20" font-weight="700" fill="#393939">
                <tspan x="10.84" y="43">&gt;_</tspan>
            </text>
        </g>
    </g>
</svg>