<?xml version="1.0" encoding="UTF-8"?>
<svg width="103px" height="87px" viewBox="0 0 103 87" version="1.1" xmlns="http://www.w3.org/2000/svg" xmlns:xlink="http://www.w3.org/1999/xlink">
    <!-- Generator: Sketch 48.2 (47327) - http://www.bohemiancoding.com/sketch -->
    <title>BusinessDev</title>
    <desc>Created with Sketch.</desc>
    <defs></defs>
    <g id="Desktop" stroke="none" stroke-width="1" fill="none" fill-rule="evenodd" transform="translate(-145.000000, -1259.000000)">
        <g id="BusinessDev" transform="translate(146.000000, 1260.000000)">
            <path d="M101,64.3871239 C101,66.3843038 99.3489384,68 97.3147805,68 L3.6831375,68 C1.64897959,68 0,66.3843038 0,64.3871239 L0,3.60879609 C0,1.61569616 1.64897959,0 3.6831375,0 L97.3147805,0 C99.3489384,0 101,1.61569616 101,3.60879609 L101,64.3871239 Z" id="Fill-725" fill="#4FB2FC"></path>
            <path d="M97.2440318,0 L93,0 C95.0732095,0 96.7559682,1.61569616 96.7559682,3.60879609 L96.7559682,64.3871239 C96.7559682,66.3863439 95.0732095,68 93,68 L97.2440318,68 C99.3172414,68 101,66.3863439 101,64.3871239 L101,3.60879609 C101,1.61569616 99.3172414,0 97.2440318,0" id="Fill-726" fill="#FFFFFF"></path>
            <path d="M4.24515787,64.3871239 L4.24515787,3.60879609 C4.24515787,1.61569616 5.92624038,0 8,0 L3.75484213,0 C1.68108252,0 0,1.61569616 0,3.60879609 L0,64.3871239 C0,66.3843038 1.68108252,68 3.75484213,68 L8,68 C5.92624038,68 4.24515787,66.3843038 4.24515787,64.3871239" id="Fill-727" fill="#0077FF"></path>
            <path d="M0,54 L0,63.3919448 C0,65.3884971 1.64897959,67 3.6831375,67 L97.3168625,67 C99.3489384,67 101,65.3884971 101,63.3919448 L101,54 L0,54 Z" id="Fill-728" fill="#F2F2F2"></path>
            <path d="M3.61111111,63.3919448 L3.61111111,54 L0,54 L0,63.3919448 C0,65.3864598 1.51724138,67 3.38888889,67 L7,67 C5.12835249,67 3.61111111,65.3864598 3.61111111,63.3919448" id="Fill-729" fill="#E6E7E8"></path>
            <path d="M96.3898769,54 L96.3898769,63.3919448 C96.3898769,65.3884971 94.8711354,67 93,67 L96.6101231,67 C98.4812585,67 100,65.3884971 100,63.3919448 L100,54 L96.3898769,54 Z" id="Fill-730" fill="#FFFFFF"></path>
            <path d="M101,64.3871239 C101,66.3843038 99.3489384,68 97.3147805,68 L3.6831375,68 C1.64897959,68 0,66.3843038 0,64.3871239 L0,3.60879609 C0,1.61569616 1.64897959,0 3.6831375,0 L97.3147805,0 C99.3489384,0 101,1.61569616 101,3.60879609 L101,64.3871239 Z" id="Stroke-731" stroke="#000000" stroke-linecap="round" stroke-linejoin="round"></path>
            <path d="M74,83 L26,83" id="Stroke-732" stroke="#000000" stroke-linecap="round" stroke-linejoin="round"></path>
            <path d="M0,54 L0,63.3919448 C0,65.3884971 1.64897959,67 3.6831375,67 L97.3168625,67 C99.3489384,67 101,65.3884971 101,63.3919448 L101,54 L0,54 Z" id="Stroke-733" stroke="#000000" stroke-linecap="round" stroke-linejoin="round"></path>
            <path d="M50,61.000999 C50,61.5524476 49.5508982,62 49,62 C48.4491018,62 48,61.5524476 48,61.000999 C48,60.4455544 48.4491018,60 49,60 C49.5508982,60 50,60.4455544 50,61.000999 Z" id="Stroke-734" stroke="#000000" stroke-linecap="round" stroke-linejoin="round"></path>
            <polygon id="Fill-735" fill="#F2F2F2" points="65.2133548 68 69 85 33 85 36.5448125 68.0021016"></polygon>
            <polyline id="Fill-736" fill="#E2E2E2" points="36.5943114 68 33 85 36.4056886 85 40 68"></polyline>
            <polyline id="Fill-737" fill="#FFFFFF" points="65.4056886 68 69 85 65.5943114 85 62 68"></polyline>
            <polygon id="Stroke-738" stroke="#000000" stroke-linecap="round" stroke-linejoin="round" points="65.2133548 68 69 85 33 85 36.5448125 68.0021016"></polygon>
            <path d="M45,27.5021687 C45,29.9853012 42.9853012,32 40.5,32 C38.0125301,32 36,29.9853012 36,27.5021687 C36,25.0168675 38.0125301,23 40.5,23 C42.9853012,23 45,25.0168675 45,27.5021687" id="Fill-739" fill="#53EDFF"></path>
            <path d="M31,41.5021687 C31,43.9853012 28.9853012,46 26.5,46 C24.0125301,46 22,43.9853012 22,41.5021687 C22,39.0168675 24.0125301,37 26.5,37 C28.9853012,37 31,39.0168675 31,41.5021687" id="Fill-740" fill="#9BE1FF"></path>
            <path d="M77,13.5021687 C77,15.9853012 74.9831325,18 72.5,18 C70.0103614,18 68,15.9853012 68,13.5021687 C68,11.0168675 70.0103614,9 72.5,9 C74.9831325,9 77,11.0168675 77,13.5021687" id="Fill-741" fill="#9CF0FF"></path>
            <path d="M64,27.5021687 C64,29.9853012 61.9853012,32 59.5,32 C57.0103614,32 55,29.9853012 55,27.5021687 C55,25.0168675 57.0103614,23 59.5,23 C61.9853012,23 64,25.0168675 64,27.5021687" id="Fill-742" fill="#00E9C4"></path>
            <path d="M30,38 L38,31" id="Stroke-743" stroke="#000000" stroke-linecap="round" stroke-linejoin="round"></path>
            <path d="M62,24 L69,17" id="Stroke-744" stroke="#000000" stroke-linecap="round" stroke-linejoin="round"></path>
            <path d="M44,27 L55,27.562" id="Stroke-745" stroke="#000000" stroke-linecap="round" stroke-linejoin="round"></path>
            <path d="M26.0656049,37 C25.6939704,37 25.3412969,37.0780723 25,37.1886747 C26.6514979,37.7221687 27.8668942,39.4419277 27.8668942,41.5021687 C27.8668942,43.560241 26.6514979,45.2778313 25,45.8113253 C25.3412969,45.9219277 25.6939704,46 26.0656049,46 C28.2385286,46 30,43.9853012 30,41.5021687 C30,39.0168675 28.2385286,37 26.0656049,37" id="Fill-746" fill="#FFFFFF"></path>
            <path d="M72.0656049,9 C71.6939704,9 71.3394008,9.07807229 71,9.1886747 C72.6496018,9.72216867 73.8668942,11.4419277 73.8668942,13.5021687 C73.8668942,15.560241 72.6496018,17.2778313 71,17.8113253 C71.3394008,17.9219277 71.6939704,18 72.0656049,18 C74.2385286,18 76,15.9853012 76,13.5021687 C76,11.0168675 74.2385286,9 72.0656049,9" id="Fill-747" fill="#FFFFFF"></path>
            <path d="M59.0656049,23 C58.6939704,23 58.3394008,23.0780723 58,23.1886747 C59.6514979,23.7221687 60.8668942,25.4419277 60.8668942,27.5021687 C60.8668942,29.560241 59.6514979,31.2778313 58,31.8113253 C58.3394008,31.9219277 58.6939704,32 59.0656049,32 C61.2385286,32 63,29.9853012 63,27.5021687 C63,25.0168675 61.2385286,23 59.0656049,23" id="Fill-748" fill="#FFFFFF"></path>
            <path d="M40.0656049,23 C39.6939704,23 39.3412969,23.0780723 39,23.1886747 C40.6514979,23.7221687 41.8668942,25.4419277 41.8668942,27.5021687 C41.8668942,29.560241 40.6514979,31.2778313 39,31.8113253 C39.3412969,31.9219277 39.6939704,32 40.0656049,32 C42.2385286,32 44,29.9853012 44,27.5021687 C44,25.0168675 42.2385286,23 40.0656049,23" id="Fill-749" fill="#FFFFFF"></path>
            <path d="M45,27.5021687 C45,29.9853012 42.9853012,32 40.5,32 C38.0125301,32 36,29.9853012 36,27.5021687 C36,25.0168675 38.0125301,23 40.5,23 C42.9853012,23 45,25.0168675 45,27.5021687 Z" id="Stroke-750" stroke="#000000" stroke-linecap="round" stroke-linejoin="round"></path>
            <path d="M31,41.5021687 C31,43.9853012 28.9853012,46 26.5,46 C24.0125301,46 22,43.9853012 22,41.5021687 C22,39.0168675 24.0125301,37 26.5,37 C28.9853012,37 31,39.0168675 31,41.5021687 Z" id="Stroke-751" stroke="#000000" stroke-linecap="round" stroke-linejoin="round"></path>
            <path d="M77,13.5021687 C77,15.9853012 74.9831325,18 72.5,18 C70.0103614,18 68,15.9853012 68,13.5021687 C68,11.0168675 70.0103614,9 72.5,9 C74.9831325,9 77,11.0168675 77,13.5021687 Z" id="Stroke-752" stroke="#000000" stroke-linecap="round" stroke-linejoin="round"></path>
            <path d="M64,27.5021687 C64,29.9853012 61.9853012,32 59.5,32 C57.0103614,32 55,29.9853012 55,27.5021687 C55,25.0168675 57.0103614,23 59.5,23 C61.9853012,23 64,25.0168675 64,27.5021687 Z" id="Stroke-753" stroke="#000000" stroke-linecap="round" stroke-linejoin="round"></path>
        </g>
    </g>
</svg>