<?xml version="1.0" encoding="UTF-8"?>
<svg width="102px" height="98px" viewBox="0 0 102 98" version="1.1" xmlns="http://www.w3.org/2000/svg" xmlns:xlink="http://www.w3.org/1999/xlink">
    <!-- Generator: Sketch 48.2 (47327) - http://www.bohemiancoding.com/sketch -->
    <title>Staffing</title>
    <desc>Created with Sketch.</desc>
    <defs></defs>
    <g id="Desktop" stroke="none" stroke-width="1" fill="none" fill-rule="evenodd" transform="translate(-133.000000, -459.000000)">
        <g id="Staffing" transform="translate(134.000000, 460.000000)">
            <path d="M19,55 C19,51.6871043 21.6302187,49 24.8710239,49 L76.1289761,49 C79.3736953,49 82,51.6871043 82,55" id="Stroke-510" stroke="#000000" stroke-linecap="round" stroke-linejoin="round"></path>
            <path d="M60,63.0046627 C60,67.9676717 55.7495596,72 50.4990156,72 C45.2504404,72 41,67.9676717 41,63.0046627 C41,58.0304632 45.2504404,54 50.4990156,54 C55.7495596,54 60,58.0304632 60,63.0046627" id="Fill-511" fill="#FFE843"></path>
            <path d="M52.1327968,54 C51.3903421,54 50.6820926,54.1510724 50,54.3711532 C53.3038229,55.4417159 55.7364185,58.8772148 55.7364185,63.0046627 C55.7364185,67.1153248 53.3038229,70.5508237 50,71.6176562 C50.6820926,71.8396021 51.3903421,72 52.1327968,72 C56.4808853,72 60,67.9676717 60,63.0046627 C60,58.0304632 56.4808853,54 52.1327968,54" id="Fill-512" fill="#FFFFFF"></path>
            <path d="M48.8672032,54 C49.6096579,54 50.3179074,54.1510724 51,54.3711532 C47.6961771,55.4417159 45.2635815,58.8772148 45.2635815,63.0046627 C45.2635815,67.1153248 47.6961771,70.5508237 51,71.6176562 C50.3179074,71.8396021 49.6096579,72 48.8672032,72 C44.5191147,72 41,67.9676717 41,63.0046627 C41,58.0304632 44.5191147,54 48.8672032,54" id="Fill-513" fill="#F4D93D"></path>
            <path d="M60,63.0046627 C60,67.9676717 55.7495596,72 50.4990156,72 C45.2504404,72 41,67.9676717 41,63.0046627 C41,58.0304632 45.2504404,54 50.4990156,54 C55.7495596,54 60,58.0304632 60,63.0046627 Z" id="Stroke-514" stroke="#000000" stroke-linecap="round" stroke-linejoin="round"></path>
            <polyline id="Stroke-515" stroke="#000000" stroke-linecap="round" stroke-linejoin="round" points="45 61.1920266 48.8156374 66 56 60"></polyline>
            <path d="M50,49 L50,42" id="Stroke-516" stroke="#000000" stroke-linecap="round" stroke-linejoin="round"></path>
            <path d="M44.0246371,24.4994861 C44.0246371,24.4994861 43.2783171,28.7235355 50.0009675,32 L49.9971205,32 C56.7216944,28.7235355 55.9753744,24.4994861 55.9753744,24.4994861 L55.8484231,22.1849949 L55.9061283,22 C54.690473,23.2764645 52.9708594,24.0739979 51.0685129,24.0739979 L48.8007003,24.0739979 C46.9579824,24.0739979 45.296074,23.3299075 44.0881128,22.1274409 L44.0246371,24.4994861 Z" id="Fill-517" fill="#FFE4B8"></path>
            <path d="M44.0925589,22 C44.0925589,22 44.0885589,22 44.0885589,22 L44.0225589,23.4460016 C44.0225589,23.4460016 43.9645589,23.6586974 44.0345589,24 L44.0925589,22 Z" id="Fill-518" fill="#EFD2A8"></path>
            <path d="M56.11,24 C56.184,23.6339983 56.124,23.4050304 56.124,23.4050304 L56,22 L56.11,24 Z" id="Fill-519" fill="#EFD2A8"></path>
            <path d="M49.7784841,24 L52.0845966,24 C53.991687,24 55.7168704,22.871517 56.9471883,22.1377709 L56.9432763,22.1037152 L57,22 C55.7657702,22.7306502 54.0171149,23.1888545 52.0826406,23.1888545 L49.7765281,23.1888545 C47.9105134,23.1888545 46.2224939,22.7631579 45,22.0773994 C46.2224939,22.7693498 47.9124694,24 49.7784841,24" id="Fill-520" fill="#EFD2A8"></path>
            <path d="M46.4439747,25.0299813 L46.5005173,23.2948157 C45.8502778,23.0118676 44.6215646,22.4178638 44.0996333,22 L44.0278677,24.1623985 C44.0278677,24.1623985 43.1840788,28.0093691 50.7825286,31 C50.8608183,30.9681449 50.923885,30.9362898 51,30.9044347 C45.8502778,28.08807 46.4439747,25.0299813 46.4439747,25.0299813" id="Fill-521" fill="#EFD2A8"></path>
            <path d="M50,30 L50.004,30 C50.004,30 50.002,30 50.002,30 C50.002,30 50,30 50,30" id="Fill-522" fill="#FFE4B8"></path>
            <path d="M54.5560253,25.028738 L54.4994827,23.2932112 C55.1497222,23.0120783 56.3784354,22.4179509 56.898192,22 L56.9721323,24.1628488 C56.9721323,24.1628488 57.8159212,28.0106206 50.2174714,31 C50.1391817,30.9681383 50.0739403,30.9381508 50,30.906289 C55.0953543,28.3254894 54.5560253,25.028738 54.5560253,25.028738" id="Fill-523" fill="#FFFFFF"></path>
            <path d="M43.0033349,15.7089496 C43.0033349,19.1835046 45.8737591,22 49.4127478,22 L51.5925888,22 C55.1315775,22 58,19.1835046 58,15.7089496 L58,13.9773126 C58,10.9163951 56.4266713,7.95324643 54.1247272,7 C52.8776741,9.8841815 47.8994698,9.60215593 45.751656,9.59463525 C42.7911557,9.59839559 43.0033349,13.9773126 43.0033349,13.9773126 L43.0033349,15.7089496 Z" id="Fill-524" fill="#FFE4B8"></path>
            <path d="M44.658133,16.4073962 L44.658133,14.5927554 C44.658133,14.5927554 44.4254959,10.1300394 47.6843859,10.0098515 C47.1047648,10.0098515 46.5783742,10.0019703 46.1525302,10 C42.7556352,10.0039406 43.0040442,14.5927554 43.0040442,14.5927554 L43.0040442,16.4073962 C43.0040442,20.0484995 46.2905352,23 50.3478828,23 L52,23 C47.9465954,23 44.658133,20.0484995 44.658133,16.4073962" id="Fill-525" fill="#EFD2A8"></path>
            <path d="M53.0219378,7 C52.8641073,7.28569627 52.646557,7.53355197 52.4055454,7.76059536 C54.790067,9.00933401 56.353443,11.6392533 56.353443,14.3467457 L56.353443,16.0874117 C56.353443,18.8024723 54.1203534,21.1012866 51,22 C54.956429,21.5402371 58,18.9368063 58,15.7638749 L58,14.0213169 C58,10.9410949 55.9759293,7.95925832 53.0219378,7" id="Fill-526" fill="#FFFFFF"></path>
            <path d="M68,36 C66.6244121,29.5222776 61.8492946,24.6022197 55.9987174,24.0077208 C55.9236853,25.2970886 55.1714408,28.3873251 50.0134673,30.9139456 C44.8554938,28.3853949 44.1070971,25.2932282 44.0359128,24.0019302 C38.1891834,24.5674763 33.3832835,29.4952549 32,36 L68,36 Z" id="Fill-527" fill="#0095FE"></path>
            <path d="M42.0036121,15.6981385 C42.0036121,19.1784889 45.0643071,22 48.8377125,22 L51.1658996,22 C54.9412847,22 58,19.1784889 58,15.6981385 L58,13.9716511 C58,10.9055846 56.5508223,7.95632072 54.0939513,7 C52.7635587,9.8890376 47.2261952,9.58790607 44.9356233,9.58060591 C41.7759408,9.58608103 42.0036121,13.9716511 42.0036121,13.9716511 L42.0036121,15.6981385 Z" id="Stroke-528" stroke="#000000" stroke-linecap="round" stroke-linejoin="round"></path>
            <path d="M51.0446127,23.1711027 C52.8864551,23.1711027 54.840393,22.3479087 56,21 L56,24.1920152 C55.9246255,25.4638783 55.1747463,28.5095057 49.9913029,31 L50.0067644,31 C44.823321,28.5095057 44.0734418,25.4638783 44,24.1920152 L44.054115,21.2471483 C45.262039,22.4353612 46.9299404,23.1711027 48.7717829,23.1711027 L51.0446127,23.1711027 Z" id="Stroke-529" stroke="#000000" stroke-linecap="round" stroke-linejoin="round"></path>
            <path d="M58.3514842,14.9464743 C58.647836,14.3710729 58.9112599,13.766997 59.1320711,13.1380699 C61.4660843,6.51043996 58.7233767,3.11729224 55.2814337,2.99112449 L55.2698121,2.99877102 C54.0398549,1.01449646 51.9014728,-0.0999853007 49.2672339,0.00706612061 C44.8045233,0.184847945 40.7505071,3.60093526 41.011994,8.81395715 C41.1204627,10.9568972 41.6279411,13.153363 42.5150598,15 C42.5150598,15 42.4705101,10.6319197 44.7599736,10.3088538 C47.055248,9.98578789 53.1546732,10.6280964 54.5066575,7.49875398 C54.5066575,7.49875398 58.4308987,9.40273997 58.3514842,14.9464743" id="Fill-530" fill="#000000"></path>
            <path d="M58.3514842,14.9464743 C58.647836,14.3710729 58.9112599,13.766997 59.1320711,13.1380699 C61.4660843,6.51043996 58.7233767,3.11729224 55.2814337,2.99112449 L55.2698121,2.99877102 C54.0398549,1.01449646 51.9014728,-0.0999853007 49.2672339,0.00706612061 C44.8045233,0.184847945 40.7505071,3.60093526 41.011994,8.81395715 C41.1204627,10.9568972 41.6279411,13.153363 42.5150598,15 C42.5150598,15 42.4705101,10.6319197 44.7599736,10.3088538 C47.055248,9.98578789 53.1546732,10.6280964 54.5066575,7.49875398 C54.5066575,7.49875398 58.4308987,9.40273997 58.3514842,14.9464743 Z" id="Stroke-531" stroke="#000000" stroke-linecap="round" stroke-linejoin="round"></path>
            <path d="M44,24.4500241 C43.9751711,24.2877837 43.9560719,24.1274746 43.9484323,24 C38.1289193,24.5813617 33.3713194,29.5026557 32,36 L34.2670699,36 C35.4588572,30.3505553 39.2137514,25.8985997 44,24.4500241" id="Fill-532" fill="#7FE0F1"></path>
            <path d="M44,24.002 L44,24.006 C44.012,24.004 44.022,24.002 44.032,24 L44,24.002 Z" id="Fill-533" fill="#7FE0F1"></path>
            <path d="M56,24.4500241 C56.0248289,24.2877837 56.0439281,24.1274746 56.0515677,24 C61.8710807,24.5813617 66.6286806,29.5026557 68,36 L65.7329301,36 C64.5411428,30.3505553 60.7862486,25.8985997 56,24.4500241" id="Fill-534" fill="#FFFFFF"></path>
            <path d="M68,36 C66.6244121,29.5222776 61.8492946,24.6022197 55.9987174,24.0077208 L55.9987174,24.0057906 C55.9236853,25.2970886 55.1714408,28.3873251 50.0134673,30.9139456 C44.8554938,28.3853949 44.1070971,25.2932282 44.0359128,24.0019302 L44.0666952,24 C38.1891834,24.5674763 33.3832835,29.4952549 32,36 L68,36 Z" id="Stroke-535" stroke="#000000" stroke-linecap="round" stroke-linejoin="round"></path>
            <path d="M12.0246371,84.5015416 C12.0246371,84.5015416 11.2783171,88.725591 18.0009675,92 L17.9971205,92 C24.7216944,88.725591 23.9753744,84.5015416 23.9753744,84.5015416 L23.8484231,82.1849949 L23.9061283,82 C22.690473,83.2764645 20.9708594,84.0760534 19.0685129,84.0760534 L16.8007003,84.0760534 C14.9579824,84.0760534 13.296074,83.331963 12.0881128,82.1294964 L12.0246371,84.5015416 Z" id="Fill-536" fill="#FFE4B8"></path>
            <path d="M12.0925589,82 L12.0885589,82 L12.0225589,83.446458 C12.0225589,83.446458 11.9645589,83.6589786 12.0345589,84 L12.0925589,82 Z" id="Fill-537" fill="#EFD2A8"></path>
            <path d="M24.11,84 C24.184,83.6336806 24.124,83.4045139 24.124,83.4045139 L24,82 L24.11,84 Z" id="Fill-538" fill="#EFD2A8"></path>
            <path d="M16.7784841,84 L19.0845966,84 C20.991687,83.998452 22.7168704,82.871517 23.9471883,82.1393189 L23.9432763,82.1037152 L24,82 C22.7657702,82.7321981 21.0171149,83.1888545 19.0826406,83.1888545 L16.7765281,83.1888545 C14.9105134,83.1888545 13.2224939,82.7631579 12,82.0789474 C13.2224939,82.7678019 14.9124694,84 16.7784841,84" id="Fill-539" fill="#EFD2A8"></path>
            <path d="M14.4439747,85.0299813 L14.5005173,83.2948157 C13.8502778,83.0137414 12.6215646,82.4178638 12.0996333,82 L12.0278677,84.1623985 C12.0278677,84.1623985 11.1840788,88.0093691 18.7825286,91 C18.8608183,90.9681449 18.923885,90.9362898 19,90.9044347 C13.8502778,88.0899438 14.4439747,85.0299813 14.4439747,85.0299813" id="Fill-540" fill="#EFD2A8"></path>
            <polygon id="Fill-541" fill="#FFE4B8" points="18 91 18.004 91 18.002 91"></polygon>
            <path d="M22.5560253,85.0299813 L22.4994827,83.2948157 C23.1497222,83.0137414 24.3784354,82.4178638 24.898192,82 L24.9721323,84.1623985 C24.9721323,84.1623985 25.8159212,88.0093691 18.2174714,91 C18.1391817,90.9681449 18.0739403,90.9362898 18,90.9044347 C23.0953543,88.3260462 22.5560253,85.0299813 22.5560253,85.0299813" id="Fill-542" fill="#FFFFFF"></path>
            <path d="M11.0033349,76.7097381 C11.0033349,80.1838576 13.8737591,83 17.4127478,83 L19.5925888,83 C23.1315775,83 26,80.1838576 26,76.7097381 L26,74.9764382 C26,71.9177842 24.4266713,68.9550069 22.1247272,68 C20.8776741,70.8857 15.8994698,70.6037097 13.751656,70.59619 C10.7911557,70.5999499 11.0033349,74.9764382 11.0033349,74.9764382 L11.0033349,76.7097381 Z" id="Fill-543" fill="#FFE4B8"></path>
            <path d="M12.658133,76.4073962 L12.658133,74.5907851 C12.658133,74.5907851 12.4254959,70.1300394 15.6843859,70.0118218 C15.1047648,70.0118218 14.5783742,70 14.1525302,70 C10.7556352,70.0039406 11.0040442,74.5907851 11.0040442,74.5907851 L11.0040442,76.4073962 C11.0040442,80.0484995 14.2905352,83 18.3478828,83 L20,83 C15.9465954,83 12.658133,80.0484995 12.658133,76.4073962" id="Fill-544" fill="#EFD2A8"></path>
            <path d="M21.0219378,68 C20.8641073,68.2856963 20.646557,68.533552 20.4055454,68.7605954 C22.790067,70.009334 24.353443,72.6392533 24.353443,75.3486377 L24.353443,77.0893037 C24.353443,79.8024723 22.1203534,82.1012866 19,83 C22.956429,82.5421292 26,79.9386983 26,76.7657669 L26,75.0213169 C26,71.9429869 23.9759293,68.9611504 21.0219378,68" id="Fill-545" fill="#FFFFFF"></path>
            <path d="M36,96 C34.6244121,89.5222776 29.8492946,84.6022197 23.9987174,84.0077208 C23.9236853,85.2970886 23.1714408,88.3873251 18.0134673,90.9139456 C12.8554938,88.3853949 12.1070971,85.2932282 12.0359128,84.0019302 C6.18918341,84.5674763 1.38328345,89.4952549 0,96 L36,96 Z" id="Fill-546" fill="#0094FE"></path>
            <path d="M11.0036121,76.6981385 C11.0036121,80.1784889 14.0643071,83 17.8377125,83 L20.1658996,83 C23.9412847,83 27,80.1784889 27,76.6981385 L27,74.9716511 C27,71.9055846 25.5508223,68.9563207 23.0939513,68 C21.7635587,70.8890376 16.2261952,70.5879061 13.9356233,70.5806059 C10.7759408,70.586081 11.0036121,74.9716511 11.0036121,74.9716511 L11.0036121,76.6981385 Z" id="Stroke-547" stroke="#000000" stroke-linecap="round" stroke-linejoin="round"></path>
            <path d="M19.0446127,83.1711027 C20.8864551,83.1711027 22.840393,82.3479087 24,81 L24,84.1920152 C23.9246255,85.4638783 23.1747463,88.5095057 17.9913029,91 L18.0067644,91 C12.823321,88.5095057 12.0734418,85.4638783 12,84.1920152 L12.054115,81.2471483 C13.262039,82.4353612 14.9299404,83.1711027 16.7717829,83.1711027 L19.0446127,83.1711027 Z" id="Stroke-548" stroke="#000000" stroke-linecap="round" stroke-linejoin="round"></path>
            <path d="M25.3514842,74.9464743 C25.647836,74.3710729 25.9112599,73.766997 26.1320711,73.1380699 C28.4660843,66.51044 25.7233767,63.1172922 22.2814337,62.9911245 L22.2698121,62.998771 C21.0398549,61.0144965 18.9014728,59.9000147 16.2672339,60.0070661 C11.8045233,60.1848479 7.75050709,63.6009353 8.01199404,68.8139572 C8.1204627,70.9568972 8.62794108,73.153363 9.51505976,75 C9.51505976,75 9.47051013,70.6319197 11.7599736,70.3088538 C14.055248,69.9857879 20.1546732,70.6280964 21.5066575,67.498754 C21.5066575,67.498754 25.4308987,69.40274 25.3514842,74.9464743" id="Fill-549" fill="#000000"></path>
            <path d="M25.3514842,74.9464743 C25.647836,74.3710729 25.9112599,73.766997 26.1320711,73.1380699 C28.4660843,66.51044 25.7233767,63.1172922 22.2814337,62.9911245 L22.2698121,62.998771 C21.0398549,61.0144965 18.9014728,59.9000147 16.2672339,60.0070661 C11.8045233,60.1848479 7.75050709,63.6009353 8.01199404,68.8139572 C8.1204627,70.9568972 8.62794108,73.153363 9.51505976,75 C9.51505976,75 9.47051013,70.6319197 11.7599736,70.3088538 C14.055248,69.9857879 20.1546732,70.6280964 21.5066575,67.498754 C21.5066575,67.498754 25.4308987,69.40274 25.3514842,74.9464743 Z" id="Stroke-550" stroke="#000000" stroke-linecap="round" stroke-linejoin="round"></path>
            <path d="M12,84.4500241 C11.9751711,84.2858522 11.9560719,84.1274746 11.9484323,84 C6.12891931,84.5794302 1.37131943,89.5026557 0,96 L2.26706987,96 C3.45885723,90.3524867 7.21375139,85.9005311 12,84.4500241" id="Fill-551" fill="#7FE0F1"></path>
            <path d="M12,84.002 L12,84.006 C12.012,84.006 12.022,84.002 12.032,84 L12,84.002 Z" id="Fill-552" fill="#7FE0F1"></path>
            <path d="M24,84.4500241 C24.0248289,84.2858522 24.0439281,84.1274746 24.0515677,84 C29.8710807,84.5794302 34.6286806,89.5026557 36,96 L33.7329301,96 C32.5411428,90.3524867 28.7862486,85.9005311 24,84.4500241" id="Fill-553" fill="#FFFFFF"></path>
            <path d="M36,96 C34.6244121,89.5222776 29.8492946,84.6022197 23.9987174,84.0077208 L23.9987174,84.0057906 C23.9236853,85.2970886 23.1714408,88.3873251 18.0134673,90.9139456 C12.8554938,88.3853949 12.1070971,85.2932282 12.0359128,84.0019302 L12.0666952,84 C6.18918341,84.5674763 1.38328345,89.4952549 0,96 L36,96 Z" id="Stroke-554" stroke="#000000" stroke-linecap="round" stroke-linejoin="round"></path>
            <path d="M76.0246371,84.5015416 C76.0246371,84.5015416 75.2783171,88.725591 82.0009675,92 L81.9971205,92 C88.7216944,88.725591 87.9753744,84.5015416 87.9753744,84.5015416 L87.8484231,82.1849949 L87.9061283,82 C86.690473,83.2764645 84.9708594,84.0760534 83.0685129,84.0760534 L80.8007003,84.0760534 C78.9579824,84.0760534 77.296074,83.331963 76.0881128,82.1294964 L76.0246371,84.5015416 Z" id="Fill-555" fill="#FFE4B8"></path>
            <path d="M76.0925589,82 L76.0885589,82 L76.0225589,83.446458 C76.0225589,83.446458 75.9645589,83.6589786 76.0345589,84 L76.0925589,82 Z" id="Fill-556" fill="#EFD2A8"></path>
            <path d="M89.11,84 C89.184,83.6336806 89.124,83.4045139 89.124,83.4045139 L89,82 L89.11,84 Z" id="Fill-557" fill="#EFD2A8"></path>
            <path d="M80.7784841,84 L83.0845966,84 C84.991687,83.998452 86.7168704,82.871517 87.9471883,82.1393189 L87.9432763,82.1037152 L88,82 C86.7657702,82.7321981 85.0171149,83.1888545 83.0826406,83.1888545 L80.7765281,83.1888545 C78.9105134,83.1888545 77.2224939,82.7631579 76,82.0789474 C77.2224939,82.7678019 78.9124694,84 80.7784841,84" id="Fill-558" fill="#EFD2A8"></path>
            <path d="M78.4439747,85.0299813 L78.5005173,83.2948157 C77.8502778,83.0137414 76.6215646,82.4178638 76.0996333,82 L76.0278677,84.1623985 C76.0278677,84.1623985 75.1840788,88.0093691 82.7825286,91 C82.8608183,90.9681449 82.923885,90.9362898 83,90.9044347 C77.8502778,88.0899438 78.4439747,85.0299813 78.4439747,85.0299813" id="Fill-559" fill="#EFD2A8"></path>
            <polygon id="Fill-560" fill="#FFE4B8" points="82 91 82.004 91 82.002 91"></polygon>
            <path d="M86.5560253,85.0299813 L86.4994827,83.2948157 C87.1497222,83.0137414 88.3784354,82.4178638 88.898192,82 L88.9721323,84.1623985 C88.9721323,84.1623985 89.8159212,88.0093691 82.2174714,91 C82.1391817,90.9681449 82.0739403,90.9362898 82,90.9044347 C87.0953543,88.3260462 86.5560253,85.0299813 86.5560253,85.0299813" id="Fill-561" fill="#FFFFFF"></path>
            <path d="M75.0033349,76.7097381 C75.0033349,80.1838576 77.8737591,83 81.4127478,83 L83.5925888,83 C87.1315775,83 90,80.1838576 90,76.7097381 L90,74.9764382 C90,71.9177842 88.4266713,68.9550069 86.1247272,68 C84.8776741,70.8857 79.8994698,70.6037097 77.751656,70.59619 C74.7911557,70.5999499 75.0033349,74.9764382 75.0033349,74.9764382 L75.0033349,76.7097381 Z" id="Fill-562" fill="#FFE4B8"></path>
            <path d="M76.658133,76.4073962 L76.658133,74.5907851 C76.658133,74.5907851 76.4254959,70.1300394 79.6843859,70.0118218 C79.1047648,70.0118218 78.5783742,70 78.1525302,70 C74.7556352,70.0039406 75.0040442,74.5907851 75.0040442,74.5907851 L75.0040442,76.4073962 C75.0040442,80.0484995 78.2905352,83 82.3478828,83 L84,83 C79.9465954,83 76.658133,80.0484995 76.658133,76.4073962" id="Fill-563" fill="#EFD2A8"></path>
            <path d="M85.0219378,68 C84.8641073,68.2856963 84.646557,68.533552 84.4055454,68.7605954 C86.790067,70.009334 88.353443,72.6392533 88.353443,75.3486377 L88.353443,77.0893037 C88.353443,79.8024723 86.1203534,82.1012866 83,83 C86.956429,82.5421292 90,79.9386983 90,76.7657669 L90,75.0213169 C90,71.9429869 87.9759293,68.9611504 85.0219378,68" id="Fill-564" fill="#FFFFFF"></path>
            <path d="M100,96 C98.6244121,89.5222776 93.8492946,84.6022197 87.9987174,84.0077208 L87.9987174,84.0057906 C87.9236853,85.2970886 87.1714408,88.3873251 82.0134673,90.9139456 C76.8554938,88.3853949 76.1070971,85.2932282 76.0359128,84.0019302 L76.0666952,84 C70.1891834,84.5674763 65.3832835,89.4952549 64,96 L100,96 Z" id="Fill-565" fill="#0096FE"></path>
            <path d="M75.0036121,76.6981385 C75.0036121,80.1784889 78.0643071,83 81.8377125,83 L84.1658996,83 C87.9412847,83 91,80.1784889 91,76.6981385 L91,74.9716511 C91,71.9055846 89.5508223,68.9563207 87.0939513,68 C85.7635587,70.8890376 80.2261952,70.5879061 77.9356233,70.5806059 C74.7759408,70.586081 75.0036121,74.9716511 75.0036121,74.9716511 L75.0036121,76.6981385 Z" id="Stroke-566" stroke="#000000" stroke-linecap="round" stroke-linejoin="round"></path>
            <path d="M83.0446127,83.1711027 C84.8864551,83.1711027 86.840393,82.3479087 88,81 L88,84.1920152 C87.9246255,85.4638783 87.1747463,88.5095057 81.9913029,91 L82.0067644,91 C76.823321,88.5095057 76.0734418,85.4638783 76,84.1920152 L76.054115,81.2471483 C77.262039,82.4353612 78.9299404,83.1711027 80.7717829,83.1711027 L83.0446127,83.1711027 Z" id="Stroke-567" stroke="#000000" stroke-linecap="round" stroke-linejoin="round"></path>
            <path d="M90.3514842,74.9464743 C90.647836,74.3710729 90.9112599,73.766997 91.1320711,73.1380699 C93.4660843,66.51044 90.7233767,63.1172922 87.2814337,62.9911245 L87.2698121,62.998771 C86.0398549,61.0144965 83.9014728,59.9000147 81.2672339,60.0070661 C76.8045233,60.1848479 72.7505071,63.6009353 73.011994,68.8139572 C73.1204627,70.9568972 73.6279411,73.153363 74.5150598,75 C74.5150598,75 74.4705101,70.6319197 76.7599736,70.3088538 C79.055248,69.9857879 85.1546732,70.6280964 86.5066575,67.498754 C86.5066575,67.498754 90.4308987,69.40274 90.3514842,74.9464743" id="Fill-568" fill="#000000"></path>
            <path d="M90.3514842,74.9464743 C90.647836,74.3710729 90.9112599,73.766997 91.1320711,73.1380699 C93.4660843,66.51044 90.7233767,63.1172922 87.2814337,62.9911245 L87.2698121,62.998771 C86.0398549,61.0144965 83.9014728,59.9000147 81.2672339,60.0070661 C76.8045233,60.1848479 72.7505071,63.6009353 73.011994,68.8139572 C73.1204627,70.9568972 73.6279411,73.153363 74.5150598,75 C74.5150598,75 74.4705101,70.6319197 76.7599736,70.3088538 C79.055248,69.9857879 85.1546732,70.6280964 86.5066575,67.498754 C86.5066575,67.498754 90.4308987,69.40274 90.3514842,74.9464743 Z" id="Stroke-569" stroke="#000000" stroke-linecap="round" stroke-linejoin="round"></path>
            <path d="M76,84.4500241 C75.9751711,84.2858522 75.9560719,84.1274746 75.9484323,84 C70.1289193,84.5794302 65.3713194,89.5026557 64,96 L66.2670699,96 C67.4588572,90.3524867 71.2137514,85.9005311 76,84.4500241" id="Fill-570" fill="#7FE0F1"></path>
            <path d="M76,84.002 L76,84.006 C76.012,84.006 76.022,84.002 76.032,84 L76,84.002 Z" id="Fill-571" fill="#7FE0F1"></path>
            <path d="M89,84.4500241 C89.0248289,84.2858522 89.0439281,84.1274746 89.0515677,84 C94.8710807,84.5794302 99.6286806,89.5026557 101,96 L98.7329301,96 C97.5411428,90.3524867 93.7862486,85.9005311 89,84.4500241" id="Fill-572" fill="#FFFFFF"></path>
            <path d="M100,96 C98.6244121,89.5222776 93.8492946,84.6022197 87.9987174,84.0077208 L87.9987174,84.0057906 C87.9236853,85.2970886 87.1714408,88.3873251 82.0134673,90.9139456 C76.8554938,88.3853949 76.1070971,85.2932282 76.0359128,84.0019302 L76.0666952,84 C70.1891834,84.5674763 65.3832835,89.4952549 64,96 L100,96 Z" id="Stroke-573" stroke="#000000" stroke-linecap="round" stroke-linejoin="round"></path>
        </g>
    </g>
</svg>