<?xml version="1.0" encoding="UTF-8"?>
<svg width="285px" height="162px" viewBox="0 0 285 162" version="1.1" xmlns="http://www.w3.org/2000/svg" xmlns:xlink="http://www.w3.org/1999/xlink">
    <!-- Generator: Sketch 48.2 (47327) - http://www.bohemiancoding.com/sketch -->
    <title>illustration-1</title>
    <desc>Created with Sketch.</desc>
    <defs></defs>
    <g id="Landing,-Unclicked" stroke="none" stroke-width="1" fill="none" fill-rule="evenodd" transform="translate(-117.000000, -2413.000000)">
        <g id="illustration-1" transform="translate(119.000000, 2415.000000)">
            <polygon id="Fill-1" fill="#FFFFFF" points="146 88 174.888889 88 183.777778 88 206 79.1875 206 51.28125 179.333333 41 152.666667 51.2371875 151.185185 60.09375"></polygon>
            <polyline id="Fill-2" fill="#FFFFFF" points="194 19 198 19 198 23.6979866 194 26"></polyline>
            <polyline id="Fill-3" fill="#FFFFFF" points="103.5 102 93 158 114 102"></polyline>
            <polyline id="Fill-4" fill="#FFFFFF" points="197.111111 102 203 158 176.5 110.842105 150 158 157.361111 102"></polyline>
            <polygon id="Fill-5" fill="#FFFFFF" points="231.222222 101 95.7777778 101 84 88 243 88"></polygon>
            <polyline id="Fill-6" fill="#FFFFFF" points="225.5 102 236 158 215 102"></polyline>
            <polygon id="Fill-7" fill="#FFFFFF" points="231.090909 88 220.909091 88 218 69 234 69"></polygon>
            <polygon id="Fill-8" fill="#FFFFFF" points="194 32.1538462 179.5 38 165 32.1538462 165 7.99461538 179.5 0 194 7.99461538"></polygon>
            <polygon id="Fill-9" fill="#FFFFFF" points="52.6315789 158 39.3684211 158 32 130 60 130"></polygon>
            <polygon id="Fill-10" fill="#CCEFFF" points="176.738676 110.842105 203 158 197.16415 102 165.066977 102 160 140.900842"></polygon>
            <polygon id="Fill-11" fill="#CCEFFF" points="227 111 225.363973 102 215 102 218.272054 111"></polygon>
            <polygon id="Fill-12" fill="#CCEFFF" points="101 111 102.636027 102 113 102 109.727946 111"></polygon>
            <polygon id="Fill-13" fill="#CCEFFF" points="46 130 60 130 52.6315789 158 46 158"></polygon>
            <polygon id="Fill-14" fill="#CCEFFF" points="225 88 231 88 234 69 225 69"></polygon>
            <polygon id="Fill-15" fill="#CCEFFF" points="165 16 165 13.8571429 179.5 6 194 13.8571429 194 16"></polygon>
            <polygon id="Stroke-16" stroke="#085EA7" stroke-width="3" stroke-linejoin="round" points="194 32.1538462 179.5 38 165 32.1538462 165 7.99461538 179.5 0 194 7.99461538"></polygon>
            <path d="M172,23 L172,21" id="Stroke-17" stroke="#085EA7" stroke-width="3" stroke-linecap="round" stroke-linejoin="round"></path>
            <path d="M184,23 L184,21" id="Stroke-18" stroke="#085EA7" stroke-width="3" stroke-linecap="round" stroke-linejoin="round"></path>
            <polygon id="Fill-19" fill="#FFFFFF" points="104.718494 88 94 50 142.281506 50 153 88"></polygon>
            <polygon id="Stroke-20" stroke="#085EA7" stroke-width="3" stroke-linecap="round" stroke-linejoin="round" points="104.718494 88 94 50 142.281506 50 153 88"></polygon>
            <polygon id="Fill-21" fill="#CCEFFF" points="127 68.1428571 122.5 71 118 68.1428571 118 63.8571429 122.5 61 127 63.8571429"></polygon>
            <polygon id="Stroke-22" stroke="#085EA7" stroke-width="3" stroke-linejoin="round" points="127 68.1428571 122.5 71 118 68.1428571 118 63.8571429 122.5 61 127 63.8571429"></polygon>
            <polyline id="Stroke-23" stroke="#085EA7" stroke-width="3" stroke-linecap="round" stroke-linejoin="round" points="188 45 178.999282 64 170 45"></polyline>
            <path d="M195,16 L152,16" id="Stroke-24" stroke="#085EA7" stroke-width="3" stroke-linecap="round" stroke-linejoin="round"></path>
            <polyline id="Stroke-25" stroke="#085EA7" stroke-width="3" stroke-linecap="round" stroke-linejoin="round" points="181 29 177.5 30 174 29"></polyline>
            <polyline id="Stroke-26" stroke="#085EA7" stroke-width="3" stroke-linecap="round" stroke-linejoin="round" points="194 19 198 19 198 23.6979866 194 26"></polyline>
            <path d="M152,82 L103,82" id="Stroke-27" stroke="#085EA7" stroke-width="3" stroke-linecap="round" stroke-linejoin="round"></path>
            <polygon id="Fill-28" fill="#FFFFFF" points="153.676984 88 177 88 174.023987 82 152 82"></polygon>
            <polygon id="Stroke-29" stroke="#085EA7" stroke-width="3" stroke-linecap="round" stroke-linejoin="round" points="153.676984 88 177 88 174.023987 82 152 82"></polygon>
            <polyline id="Stroke-30" stroke="#085EA7" stroke-width="3" stroke-linecap="round" stroke-linejoin="round" points="197.243243 61.5625 197.243243 71.84375 175.351351 88 184.108108 88 206 79.1875 206 51.28125 179.72973 41 153.459459 51.2371875 152 60.09375"></polyline>
            <path d="M197,62 L197,69" id="Stroke-31" stroke="#085EA7" stroke-width="3" stroke-linecap="round" stroke-linejoin="round"></path>
            <polygon id="Stroke-32" stroke="#085EA7" stroke-width="3" stroke-linecap="round" stroke-linejoin="round" points="231.222222 101 95.7777778 101 84 88 243 88"></polygon>
            <polyline id="Stroke-33" stroke="#085EA7" stroke-width="3" stroke-linecap="round" stroke-linejoin="round" points="103.5 102 93 158 114 102"></polyline>
            <polyline id="Stroke-34" stroke="#085EA7" stroke-width="3" stroke-linecap="round" stroke-linejoin="round" points="225.5 102 236 158 215 102"></polyline>
            <path d="M13,158 L269,158" id="Stroke-35" stroke="#085EA7" stroke-width="3" stroke-linecap="round" stroke-linejoin="round"></path>
            <path d="M277,158 L281,158" id="Stroke-36" stroke="#085EA7" stroke-width="3" stroke-linecap="round" stroke-linejoin="round"></path>
            <path d="M0,158 L4,158" id="Stroke-37" stroke="#085EA7" stroke-width="3" stroke-linecap="round" stroke-linejoin="round"></path>
            <polyline id="Stroke-38" stroke="#085EA7" stroke-width="3" stroke-linecap="round" stroke-linejoin="round" points="197.111111 102 203 158 176.5 110.842105 150 158 157.361111 102"></polyline>
            <polyline id="Stroke-39" stroke="#085EA7" stroke-width="3" stroke-linecap="round" stroke-linejoin="round" points="221 61 224 58 218 52 221 49"></polyline>
            <polyline id="Stroke-40" stroke="#085EA7" stroke-width="3" stroke-linecap="round" stroke-linejoin="round" points="231 61 234 58 228 52 231 49"></polyline>
            <polygon id="Stroke-41" stroke="#085EA7" stroke-width="3" stroke-linecap="round" stroke-linejoin="round" points="231.090909 88 220.909091 88 218 69 234 69"></polygon>
            <polygon id="Stroke-42" stroke="#085EA7" stroke-width="3" stroke-linecap="round" stroke-linejoin="round" points="52.6315789 158 39.3684211 158 32 130 60 130"></polygon>
            <polygon id="Fill-43" fill="#FFFFFF" points="53 105 59 105 65 93 53 99"></polygon>
            <polygon id="Stroke-44" stroke="#085EA7" stroke-width="3" stroke-linecap="round" stroke-linejoin="round" points="53 105 59 105 65 93 53 99"></polygon>
            <polygon id="Fill-45" fill="#FFFFFF" points="40 115 34.1818182 115 24 100 40 109"></polygon>
            <polygon id="Stroke-46" stroke="#085EA7" stroke-width="3" stroke-linecap="round" stroke-linejoin="round" points="40 115 34.1818182 115 24 100 40 109"></polygon>
            <polygon id="Fill-47" fill="#FFFFFF" points="54 77 59.8181818 77 70 62 54 71"></polygon>
            <polygon id="Stroke-48" stroke="#085EA7" stroke-width="3" stroke-linecap="round" stroke-linejoin="round" points="54 77 59.8181818 77 70 62 54 71"></polygon>
            <polygon id="Fill-49" fill="#FFFFFF" points="34.5 92 18 74 42 84.5 42 92"></polygon>
            <polygon id="Stroke-50" stroke="#085EA7" stroke-width="3" stroke-linecap="round" stroke-linejoin="round" points="34.5 92 18 74 42 84.5 42 92"></polygon>
            <path d="M47,130 L47,52" id="Stroke-51" stroke="#085EA7" stroke-width="3" stroke-linecap="round" stroke-linejoin="round"></path>
            <polygon id="Fill-52" fill="#FFFFFF" points="41 58.6923077 26 47 33.5 63.0769231 41 66"></polygon>
            <polygon id="Stroke-53" stroke="#085EA7" stroke-width="3" stroke-linecap="round" stroke-linejoin="round" points="41 58.6923077 26 47 33.5 63.0769231 41 66"></polygon>
            <polyline id="Stroke-54" stroke="#085EA7" stroke-width="3" stroke-linecap="round" stroke-linejoin="round" points="36 143 42 137 46.5 141.5 51 137 57 143"></polyline>
        </g>
    </g>
</svg>