<?xml version="1.0" encoding="UTF-8"?>
<svg width="265px" height="265px" viewBox="0 0 265 265" version="1.1" xmlns="http://www.w3.org/2000/svg" xmlns:xlink="http://www.w3.org/1999/xlink">
    <!-- Generator: Sketch 48.2 (47327) - http://www.bohemiancoding.com/sketch -->
    <title>llustration - 2</title>
    <desc>Created with Sketch.</desc>
    <defs></defs>
    <g id="Landing,-Unclicked" stroke="none" stroke-width="1" fill="none" fill-rule="evenodd" transform="translate(-635.000000, -1948.000000)">
        <g id="llustration---2" transform="translate(637.000000, 1950.000000)">
            <path d="M24,143 L24,122" id="Stroke-254" stroke="#085EA7" stroke-width="3" stroke-linecap="round" stroke-linejoin="round"></path>
            <path d="M90,221 L64,207" id="Stroke-256" stroke="#085EA7" stroke-width="3" stroke-linecap="round" stroke-linejoin="round"></path>
            <path d="M188,210 L168,221" id="Stroke-258" stroke="#085EA7" stroke-width="3" stroke-linecap="round" stroke-linejoin="round"></path>
            <path d="M234,122 L234,143" id="Stroke-260" stroke="#085EA7" stroke-width="3" stroke-linecap="round" stroke-linejoin="round"></path>
            <path d="M168,38 L188,49" id="Stroke-262" stroke="#085EA7" stroke-width="3" stroke-linecap="round" stroke-linejoin="round"></path>
            <path d="M57,56 L90,38" id="Stroke-264" stroke="#085EA7" stroke-width="3" stroke-linecap="round" stroke-linejoin="round"></path>
            <polygon id="Fill-266" fill="#FFFFFF" points="153.636364 241 153.636364 211 105.363636 211 105.363636 241 100 256 104.022727 261 154.977273 261 159 256"></polygon>
            <polygon id="Fill-268" fill="#CCEFFF" points="154 211 154 241 106 241"></polygon>
            <polygon id="Fill-270" fill="#CCEFFF" points="100 256 104.022727 261 154.977273 261 159 256"></polygon>
            <polygon id="Stroke-272" stroke="#085EA7" stroke-width="3" stroke-linecap="round" stroke-linejoin="round" points="106 241 154 241 154 211 106 211"></polygon>
            <polyline id="Stroke-274" stroke="#085EA7" stroke-width="3" stroke-linecap="round" stroke-linejoin="round" points="153.636364 241 159 256 100 256 105.363636 241"></polyline>
            <polygon id="Stroke-275" stroke="#085EA7" stroke-width="3" stroke-linecap="round" stroke-linejoin="round" points="100 256 104.022727 261 154.977273 261 159 256"></polygon>
            <polyline id="Stroke-276" stroke="#085EA7" stroke-width="3" stroke-linecap="round" stroke-linejoin="round" points="122 256 124.666667 251 135.333333 251 138 256"></polyline>
            <polygon id="Fill-277" fill="#FFFFFF" points="256 110 205 110 210.368421 100 250.631579 100"></polygon>
            <polygon id="Fill-278" fill="#FFFFFF" points="261 86.5882353 261 52 202 52 202 86.5882353 226.136364 86.5882353 226.136364 90.2941176 220.772727 94 242.227273 94 236.863636 90.2941176 236.863636 86.5882353"></polygon>
            <polygon id="Fill-279" fill="#CCEFFF" points="261 52 202 79 261 79"></polygon>
            <polygon id="Stroke-280" stroke="#085EA7" stroke-width="3" stroke-linecap="round" stroke-linejoin="round" points="202 87 261 87 261 52 202 52"></polygon>
            <path d="M202,80 L261,80" id="Stroke-281" stroke="#085EA7" stroke-width="3" stroke-linecap="round" stroke-linejoin="round"></path>
            <polyline id="Stroke-282" stroke="#085EA7" stroke-width="3" stroke-linecap="round" stroke-linejoin="round" points="236.75 87 236.75 90.5 242 94 221 94 226.25 90.5 226.25 87"></polyline>
            <polygon id="Stroke-283" stroke="#085EA7" stroke-width="3" stroke-linecap="round" stroke-linejoin="round" points="256 110 205 110 210.368421 100 250.631579 100"></polygon>
            <path d="M213,105 L216,105" id="Stroke-284" stroke="#085EA7" stroke-width="3" stroke-linecap="round" stroke-linejoin="round"></path>
            <path d="M221,105 L224,105" id="Stroke-285" stroke="#085EA7" stroke-width="3" stroke-linecap="round" stroke-linejoin="round"></path>
            <path d="M229,105 L232,105" id="Stroke-286" stroke="#085EA7" stroke-width="3" stroke-linecap="round" stroke-linejoin="round"></path>
            <path d="M237,105 L240,105" id="Stroke-287" stroke="#085EA7" stroke-width="3" stroke-linecap="round" stroke-linejoin="round"></path>
            <path d="M245,105 L248,105" id="Stroke-288" stroke="#085EA7" stroke-width="3" stroke-linecap="round" stroke-linejoin="round"></path>
            <polygon id="Fill-289" fill="#FFFFFF" points="0 211 48 211 48 154 0 154"></polygon>
            <path d="M32,176.263158 L37.3333333,176.263158 L37.3333333,171.315789 L32,171.315789 L32,176.263158 Z M21.3333333,186.157895 L26.6666667,186.157895 L26.6666667,181.210526 L21.3333333,181.210526 L21.3333333,186.157895 Z M0,201 L48,201 L48,154 L0,201 Z" id="Fill-290" fill="#CCEFFF"></path>
            <polygon id="Stroke-291" stroke="#085EA7" stroke-width="2" stroke-linecap="round" stroke-linejoin="round" points="11 166 16 166 16 161 11 161"></polygon>
            <polygon id="Stroke-292" stroke="#085EA7" stroke-width="2" stroke-linecap="round" stroke-linejoin="round" points="21 166 26 166 26 161 21 161"></polygon>
            <polygon id="Stroke-293" stroke="#085EA7" stroke-width="2" stroke-linecap="round" stroke-linejoin="round" points="11 176 16 176 16 171 11 171"></polygon>
            <polygon id="Stroke-294" stroke="#085EA7" stroke-width="2" stroke-linecap="round" stroke-linejoin="round" points="21 176 26 176 26 171 21 171"></polygon>
            <polygon id="Stroke-295" stroke="#085EA7" stroke-width="2" stroke-linecap="round" stroke-linejoin="round" points="11 186 16 186 16 181 11 181"></polygon>
            <polygon id="Stroke-296" stroke="#085EA7" stroke-width="2" stroke-linecap="round" stroke-linejoin="round" points="32 166 37 166 37 161 32 161"></polygon>
            <polygon id="Stroke-297" stroke="#085EA7" stroke-width="2" stroke-linecap="round" stroke-linejoin="round" points="32 176 37 176 37 171 32 171"></polygon>
            <polygon id="Stroke-298" stroke="#085EA7" stroke-width="2" stroke-linecap="round" stroke-linejoin="round" points="21 186 26 186 26 181 21 181"></polygon>
            <polygon id="Stroke-299" stroke="#085EA7" stroke-width="3" stroke-linecap="round" stroke-linejoin="round" points="0 211 48 211 48 154 0 154"></polygon>
            <path d="M48,201 L0,201" id="Stroke-300" stroke="#085EA7" stroke-width="3" stroke-linecap="round" stroke-linejoin="round"></path>
            <path d="M21,206 L26,206" id="Stroke-301" stroke="#1050FF" stroke-width="2" stroke-linecap="round" stroke-linejoin="round"></path>
            <polygon id="Fill-302" fill="#FFFFFF" points="198 202 260 202 260 157 198 157"></polygon>
            <path d="M230.347826,197 L251.913043,197 L251.913043,192 L230.347826,192 L230.347826,197 Z M251.142087,172 L251.913043,172 L251.913043,177 L242.28687,177 L233.428957,182 L251.913043,182 L251.913043,187 L230.347826,187 L230.347826,183.75 L224.956522,186.7925 L224.956522,197 L206.857913,197 L198,202 L260,202 L260,167 L251.142087,172 Z" id="Fill-303" fill="#CCEFFF"></path>
            <path d="M203,162 L206,162" id="Stroke-304" stroke="#085EA7" stroke-width="3" stroke-linecap="round"></path>
            <path d="M211,162 L214,162" id="Stroke-305" stroke="#085EA7" stroke-width="3" stroke-linecap="round"></path>
            <path d="M220,162 L223,162" id="Stroke-306" stroke="#085EA7" stroke-width="3" stroke-linecap="round"></path>
            <polygon id="Stroke-307" stroke="#085EA7" stroke-width="3" stroke-linecap="round" stroke-linejoin="round" points="198 202 260 202 260 157 198 157"></polygon>
            <path d="M198,167 L260,167" id="Stroke-308" stroke="#085EA7" stroke-width="3" stroke-linecap="round" stroke-linejoin="round"></path>
            <polygon id="Stroke-309" stroke="#085EA7" stroke-width="3" stroke-linecap="round" stroke-linejoin="round" points="230 187 251 187 251 182 230 182"></polygon>
            <polygon id="Stroke-310" stroke="#085EA7" stroke-width="3" stroke-linecap="round" stroke-linejoin="round" points="230 177 251 177 251 172 230 172"></polygon>
            <polygon id="Stroke-311" stroke="#085EA7" stroke-width="3" stroke-linecap="round" stroke-linejoin="round" points="230 197 251 197 251 192 230 192"></polygon>
            <polygon id="Stroke-312" stroke="#085EA7" stroke-width="3" stroke-linecap="round" stroke-linejoin="round" points="203 197 224 197 224 172 203 172"></polygon>
            <polygon id="Stroke-313" stroke="#085EA7" stroke-width="3" stroke-linecap="round" stroke-linejoin="round" points="220 187.555556 214.5 190 209 187.555556 209 181.444444 214.5 179 220 181.444444"></polygon>
            <polyline id="Stroke-314" stroke="#085EA7" stroke-width="3" stroke-linecap="round" stroke-linejoin="round" points="203 197 206.9375 192 220.0625 192 224 197"></polyline>
            <polygon id="Fill-315" fill="#FFFFFF" points="46.6666667 72 42.6666667 72 42.6666667 62 36 57 34.6666667 52 8 52 6.66666667 57 0 62 0 97 6.66666667 102 8 107 34.6666667 107 36 102 42.6666667 97 42.6666667 79.5 46.6666667 79.5 48 75.75"></polygon>
            <polygon id="Fill-316" fill="#CCEFFF" points="21 89 34 76.5 27.5 69 21 74"></polygon>
            <polygon id="Fill-317" fill="#CCEFFF" points="31.2153125 71.5925 34.9375 75.75 21.5 88.25 16.4824375 83.5825 0 97 43 97 43 62"></polygon>
            <polygon id="Stroke-318" stroke="#085EA7" stroke-width="3" stroke-linecap="round" stroke-linejoin="round" points="0 97 43 97 43 62 0 62"></polygon>
            <polyline id="Stroke-319" stroke="#085EA7" stroke-width="3" stroke-linecap="round" stroke-linejoin="round" points="43 62 36.28125 57 34.9375 52 8.0625 52 6.71875 57 0 62"></polyline>
            <polyline id="Stroke-320" stroke="#085EA7" stroke-width="3" stroke-linecap="round" stroke-linejoin="round" points="43 97 36.28125 102 34.9375 107 8.0625 107 6.71875 102 0 97"></polyline>
            <polyline id="Stroke-321" stroke="#085EA7" stroke-width="3" stroke-linecap="round" stroke-linejoin="round" points="43 72 46.75 72 48 75.5 46.75 79 43 79"></polyline>
            <path d="M7,57 L36,57" id="Stroke-322" stroke="#1050FF" stroke-width="2" stroke-linecap="round" stroke-linejoin="round"></path>
            <path d="M7,102 L36,102" id="Stroke-323" stroke="#1050FF" stroke-width="2" stroke-linecap="round" stroke-linejoin="round"></path>
            <polygon id="Stroke-324" stroke="#1050FF" stroke-width="2" stroke-linejoin="round" points="21.5 89 35 76.5 28.25 69 21.5 74 14.75 69 8 76.5"></polygon>
            <polygon id="Stroke-325" stroke="#1050FF" stroke-width="2" stroke-linecap="round" stroke-linejoin="round" points="21.5 89 35 76.5 28.25 69 21.5 74 14.75 69 8 76.5"></polygon>
            <polygon id="Stroke-326" stroke="#085EA7" stroke-width="2" stroke-linejoin="round" points="21.5 89 35 76.5 28.25 69 21.5 74 14.75 69 8 76.5"></polygon>
            <polyline id="Fill-327" fill="#FFFFFF" points="109.05 30 110.4 35 125.25 35 132 25 138.75 35 153.6 35 159 15 105 15 107.0088 22.44"></polyline>
            <polygon id="Fill-328" fill="#CCEFFF" points="152.705493 35 158 15 148.546658 15 134 28.7375 138.145599 35"></polygon>
            <polygon id="Fill-329" fill="#CCEFFF" points="117.0625 29 101.3125 29 100 22 121 22"></polygon>
            <polyline id="Stroke-330" stroke="#085EA7" stroke-width="3" stroke-linecap="round" stroke-linejoin="round" points="105 15 120.09375 0 126 0"></polyline>
            <polyline id="Stroke-331" stroke="#085EA7" stroke-width="3" stroke-linecap="round" stroke-linejoin="round" points="158 15 142.90625 0 137 0"></polyline>
            <polygon id="Stroke-332" stroke="#085EA7" stroke-width="3" stroke-linecap="round" stroke-linejoin="round" points="117.0625 29 101.3125 29 100 22 121 22"></polygon>
            <polyline id="Stroke-333" stroke="#085EA7" stroke-width="3" stroke-linecap="round" stroke-linejoin="round" points="109.05 30 110.4 35 125.25 35 132 25 138.75 35 153.6 35 159 15 105 15 107.0088 22.44"></polyline>
        </g>
    </g>
</svg>