<?xml version="1.0" encoding="utf-8"?>
<!-- Generator: Adobe Illustrator 22.0.1, SVG Export Plug-In . SVG Version: 6.00 Build 0)  -->
<svg version="1.1" id="Layer_1" xmlns="http://www.w3.org/2000/svg" xmlns:xlink="http://www.w3.org/1999/xlink" x="0px" y="0px"
	 viewBox="0 0 1203.4 1000" style="enable-background:new 0 0 1203.4 1000;" xml:space="preserve">
<style type="text/css">
	.st0{fill:#FFFFFF;}
	.st1{fill:#80E7FF;}
	.st2{fill:#83CDFF;}
	.st3{font-family:'Avenir-Heavy';}
	.st4{font-size:142.3782px;}
</style>
<g>
	<path class="st0" d="M517.6,664.3H410.8c-7,0-12.7-5.7-12.7-12.7V164.5c0-7,5.7-12.7,12.7-12.7h106.8c7,0,12.7,5.7,12.7,12.7v487.1
		C530.3,658.6,524.6,664.3,517.6,664.3z"/>
	<g>
		<path class="st1" d="M456.1,396.5l204.8-240.3c2.4-2.8,5.9-4.5,9.5-4.5h133.2c11.1,0,16.9,13.7,9.4,22.3L545.6,480.1
			c-4.7,5.4-12.7,5.8-17.9,1l-70.6-65.8C451.9,410.4,451.4,402,456.1,396.5z"/>
		<path class="st1" d="M449.4,419.6l204.8,240.3c2.4,2.8,5.9,4.5,9.5,4.5h133.2c11.1,0,16.9-13.7,9.4-22.3L538.9,336
			c-4.7-5.4-12.7-5.8-17.9-1l-70.6,65.8C445.2,405.7,444.7,414.1,449.4,419.6z"/>
	</g>
	<path class="st2" d="M607.3,414c-37.9,14-52.5,90.1-37.6,146.4l81.5,94.8c5.1,5.9,12.5,9.4,20.4,9.5l126.4,1.7
		c11.9,0.2,18.3-13.8,10.5-22.7L607.3,414z"/>
</g>
<text transform="matrix(1 0 0 1 125.9727 848.1957)" class="st0 st3 st4">Klyxx Creative</text>
</svg>
